<svg version="1.1" id="Layer_1" xmlns="http://www.w3.org/2000/svg" xmlns:xlink="http://www.w3.org/1999/xlink" x="0px" y="0px"
	 width="100%" viewBox="0 0 512 512" enable-background="new 0 0 512 512" xml:space="preserve">
<path fill="#000000" opacity="1.000000" stroke="none" 
	d="
M475.000000,513.000000 
	C316.705170,513.000000 158.910339,513.000000 1.057758,513.000000 
	C1.057758,342.413483 1.057758,171.826965 1.057758,1.120212 
	C171.544800,1.120212 342.089722,1.120212 512.817322,1.120212 
	C512.817322,171.666489 512.817322,342.333252 512.817322,513.000000 
	C500.493561,513.000000 487.996796,513.000000 475.000000,513.000000 
M413.464996,266.959106 
	C414.228638,267.595581 414.986725,268.778748 415.756775,268.786560 
	C427.394226,268.904724 439.033203,268.868530 451.068329,268.868530 
	C451.068329,261.241455 451.104828,253.930283 451.058624,246.619644 
	C451.005890,238.268829 447.219452,234.475372 438.835571,234.385254 
	C433.055237,234.323120 427.273651,234.373322 421.296448,234.373322 
	C421.296448,230.634811 421.296448,227.404510 421.296448,224.871857 
	C423.630554,223.437057 425.432220,222.329559 427.233887,221.222046 
	C426.970947,220.819916 426.707977,220.417786 426.445038,220.015656 
	C423.843903,220.015656 421.242798,220.015656 418.087585,220.015656 
	C418.087585,229.186325 418.087585,238.071228 418.087585,246.956116 
	C417.553650,247.199417 417.019714,247.442719 416.485809,247.686020 
	C415.703766,246.577667 414.439606,245.546753 414.246368,244.343826 
	C413.908783,242.242233 414.123199,240.026138 414.299683,237.873886 
	C414.566925,234.613953 413.263916,233.650604 411.235626,234.396103 
	C412.000519,239.490143 413.042938,244.255615 413.353577,249.068314 
	C413.717468,254.704987 413.444275,260.382782 413.464996,266.959106 
M409.144867,243.497314 
	C407.474274,237.360764 403.662689,234.100403 398.476227,234.371597 
	C393.833893,234.614334 389.310547,237.896042 389.071167,242.467712 
	C388.615417,251.172668 388.939026,259.918427 388.939026,268.540222 
	C395.851501,268.540222 402.385254,268.540222 409.198975,268.540222 
	C409.198975,260.251617 409.198975,252.297272 409.144867,243.497314 
M418.886017,289.210480 
	C418.886017,283.914520 418.886017,278.618591 418.886017,273.272095 
	C416.904694,273.272095 415.461243,273.272095 413.934052,273.272095 
	C413.934052,280.620392 413.934052,287.742035 413.934052,294.842987 
	C419.005096,296.500427 418.844788,293.219727 418.886017,289.210480 
M428.250977,282.541656 
	C428.250977,279.458496 428.250977,276.375336 428.250977,272.989166 
	C426.197388,273.138519 424.806091,273.239716 423.481995,273.335999 
	C422.073395,288.323975 422.854767,293.068604 428.246429,295.581604 
	C428.246429,291.171234 428.246429,287.332245 428.250977,282.541656 
z"/>
<path fill="#5BC0F1" opacity="1.000000" stroke="none" 
	d="
M413.456238,266.500916 
	C413.444275,260.382782 413.717468,254.704987 413.353577,249.068314 
	C413.042938,244.255615 412.000519,239.490143 411.235626,234.396103 
	C413.263916,233.650604 414.566925,234.613953 414.299683,237.873886 
	C414.123199,240.026138 413.908783,242.242233 414.246368,244.343826 
	C414.439606,245.546753 415.703766,246.577667 416.485809,247.686020 
	C417.019714,247.442719 417.553650,247.199417 418.087585,246.956116 
	C418.087585,238.071228 418.087585,229.186325 418.087585,220.015656 
	C421.242798,220.015656 423.843903,220.015656 426.445038,220.015656 
	C426.707977,220.417786 426.970947,220.819916 427.233887,221.222046 
	C425.432220,222.329559 423.630554,223.437057 421.296448,224.871857 
	C421.296448,227.404510 421.296448,230.634811 421.296448,234.373322 
	C427.273651,234.373322 433.055237,234.323120 438.835571,234.385254 
	C447.219452,234.475372 451.005890,238.268829 451.058624,246.619644 
	C451.104828,253.930283 451.068329,261.241455 451.068329,268.868530 
	C439.033203,268.868530 427.394226,268.904724 415.756775,268.786560 
	C414.986725,268.778748 414.228638,267.595581 413.456238,266.500916 
z"/>
<path fill="#5BC0F1" opacity="1.000000" stroke="none" 
	d="
M409.171936,243.920105 
	C409.198975,252.297272 409.198975,260.251617 409.198975,268.540222 
	C402.385254,268.540222 395.851501,268.540222 388.939026,268.540222 
	C388.939026,259.918427 388.615417,251.172668 389.071167,242.467712 
	C389.310547,237.896042 393.833893,234.614334 398.476227,234.371597 
	C403.662689,234.100403 407.474274,237.360764 409.171936,243.920105 
z"/>
<path fill="#5BC0F1" opacity="1.000000" stroke="none" 
	d="
M418.873993,289.662292 
	C418.844788,293.219727 419.005096,296.500427 413.934052,294.842987 
	C413.934052,287.742035 413.934052,280.620392 413.934052,273.272095 
	C415.461243,273.272095 416.904694,273.272095 418.886017,273.272095 
	C418.886017,278.618591 418.886017,283.914520 418.873993,289.662292 
z"/>
<path fill="#5BC0F1" opacity="1.000000" stroke="none" 
	d="
M428.248718,283.017456 
	C428.246429,287.332245 428.246429,291.171234 428.246429,295.581604 
	C422.854767,293.068604 422.073395,288.323975 423.481995,273.335999 
	C424.806091,273.239716 426.197388,273.138519 428.250977,272.989166 
	C428.250977,276.375336 428.250977,279.458496 428.248718,283.017456 
z"/>
</svg>