<svg version="1.1" id="Layer_1" xmlns="http://www.w3.org/2000/svg" xmlns:xlink="http://www.w3.org/1999/xlink" x="0px" y="0px"
	 width="100%" viewBox="0 0 1795 498" enable-background="new 0 0 1795 498" xml:space="preserve">
<path fill="#FEFFFF" opacity="1.000000" stroke="none" 
	d="
M1154.000000,499.000000 
	C769.333313,499.000000 385.166656,499.000000 1.000000,499.000000 
	C1.000000,333.000000 1.000000,167.000000 1.000000,1.000000 
	C599.333313,1.000000 1197.666626,1.000000 1796.000000,1.000000 
	C1796.000000,167.000000 1796.000000,333.000000 1796.000000,499.000000 
	C1582.166626,499.000000 1368.333374,499.000000 1154.000000,499.000000 
M1395.328735,349.297821 
	C1394.297485,350.234894 1393.266235,351.171936 1391.510864,352.088867 
	C1386.303589,355.741608 1383.207031,360.952698 1383.137817,367.086304 
	C1382.859863,391.746460 1382.864380,416.413208 1383.114746,441.073975 
	C1383.196167,449.086456 1389.416138,457.207001 1397.746216,457.035492 
	C1403.152832,456.924225 1408.567139,457.041382 1413.975098,457.172089 
	C1422.349609,457.374542 1430.722046,457.882812 1439.095093,457.876587 
	C1447.296997,457.870514 1455.497070,457.298340 1463.701050,457.132141 
	C1471.279785,456.978668 1478.866577,457.173309 1486.442993,456.967072 
	C1500.089233,456.595612 1503.538330,449.387238 1503.794189,439.056763 
	C1504.371826,415.740906 1504.227661,392.396118 1503.780884,369.074554 
	C1503.682739,363.947540 1502.683838,358.102936 1496.724609,354.428009 
	C1492.989624,348.521973 1489.082520,342.715576 1485.585449,336.671936 
	C1483.534790,333.128021 1481.140015,331.649933 1476.851318,331.699707 
	C1455.372437,331.949005 1433.888794,331.770660 1412.407593,331.889862 
	C1409.893188,331.903809 1406.216675,331.959473 1405.086426,333.484100 
	C1401.382446,338.480255 1398.605103,344.163391 1395.471436,349.582397 
	C1395.617310,349.662659 1395.763306,349.742920 1395.879272,349.893066 
	C1395.879272,349.893066 1395.808716,349.921295 1395.328735,349.297821 
M547.014954,380.500000 
	C547.007751,334.508423 547.351685,288.512085 546.726135,242.528931 
	C546.584290,232.103546 544.433105,221.230789 540.862488,211.416931 
	C530.701782,183.490723 509.273499,166.770615 482.077301,156.974945 
	C460.342163,149.146286 437.798798,147.329391 414.783142,148.728729 
	C397.006897,149.809494 379.811829,152.915756 363.485992,160.049789 
	C338.688049,170.885941 319.771149,187.788971 309.806030,213.523575 
	C306.337402,222.481155 303.925842,231.716492 304.131165,241.423004 
	C305.100983,241.701233 305.567261,241.951309 306.034027,241.952133 
	C325.363464,241.986008 344.693146,241.961014 364.022247,242.052368 
	C366.830353,242.065643 367.577332,240.707336 368.176880,238.251709 
	C371.383972,225.116318 379.569733,215.835892 391.427460,209.838989 
	C407.424866,201.748520 424.502380,201.217453 441.609772,204.535660 
	C460.600464,208.219177 473.766022,219.162735 477.203949,238.870972 
	C478.842316,248.263000 478.426666,258.035583 478.536163,267.640442 
	C478.548187,268.694061 475.934326,270.622681 474.443542,270.721985 
	C451.217468,272.269287 427.982361,273.709747 404.735718,274.911224 
	C382.990082,276.035065 361.752899,279.485870 341.706238,288.315094 
	C326.203918,295.142914 312.677856,304.681641 303.401672,319.230896 
	C291.625763,337.700836 289.238922,357.905457 292.890930,379.144379 
	C297.878967,408.153534 314.356598,428.433899 340.540588,440.914062 
	C361.093384,450.710236 382.998840,453.059052 405.350098,449.859100 
	C430.357910,446.278809 451.396545,435.016083 467.481567,415.229980 
	C471.068237,410.818024 474.219696,406.052277 477.571564,401.449463 
	C477.984375,401.523071 478.397217,401.596710 478.810028,401.670349 
	C478.810028,416.330078 478.810028,430.989807 478.810028,445.682312 
	C501.968323,445.682312 524.211487,445.682312 547.014954,445.682312 
	C547.014954,424.069397 547.014954,402.784698 547.014954,380.500000 
M923.490906,417.964813 
	C942.855164,440.273895 968.030579,449.948090 996.848694,450.883545 
	C1037.346802,452.198151 1069.128540,436.382446 1091.716675,401.538971 
	C1091.716675,416.204224 1091.716675,430.869476 1091.716675,445.573212 
	C1114.995483,445.573212 1137.365845,445.573212 1159.873047,445.573212 
	C1159.952271,443.812408 1160.063721,442.491791 1160.063599,441.171173 
	C1160.062866,375.006256 1160.334717,308.839600 1159.928345,242.677139 
	C1159.714111,207.829330 1143.053467,182.125610 1113.009888,165.079971 
	C1094.433105,154.540146 1074.151489,150.109497 1052.895752,148.741608 
	C1031.578613,147.369766 1010.634521,148.771561 990.272766,155.114441 
	C958.301208,165.073883 933.546448,183.589737 922.035950,216.339218 
	C919.233093,224.313919 918.099609,232.875351 916.010925,241.985718 
	C937.929932,241.985718 958.221191,242.021835 978.510742,241.859604 
	C979.362488,241.852798 980.679626,240.121979 980.970825,238.986786 
	C984.879883,223.746033 994.648804,213.701096 1008.888489,207.931381 
	C1024.339478,201.670929 1040.385986,201.361923 1056.453247,204.943726 
	C1074.467163,208.959503 1086.713501,219.674515 1090.252930,238.136871 
	C1091.956421,247.022858 1091.242554,256.353973 1091.940796,265.459198 
	C1092.258789,269.606110 1090.213745,270.674774 1086.754272,270.877319 
	C1063.847290,272.218445 1040.949463,273.741028 1018.033325,274.899750 
	C996.445679,275.991302 975.352844,279.373108 955.448608,288.090302 
	C933.738892,297.598206 916.041504,311.721191 908.962158,335.278595 
	C900.114868,364.719391 903.819519,392.529663 923.490906,417.964813 
M91.038193,285.837433 
	C93.031013,285.216156 95.022804,284.056030 97.016792,284.052246 
	C148.676651,283.953888 200.336914,283.921326 251.996536,284.071045 
	C256.573608,284.084290 258.039703,282.830811 257.962341,278.182617 
	C257.701752,262.522308 257.868713,246.854935 257.847595,231.190308 
	C257.845428,229.589783 257.677948,227.989487 257.553894,225.802246 
	C201.830780,225.802246 146.608032,225.802246 91.302589,225.802246 
	C91.302589,186.602982 91.302589,148.025208 91.302589,108.706177 
	C151.986633,108.706177 212.346817,108.706177 272.661011,108.706177 
	C272.661011,88.401161 272.661011,68.841705 272.661011,49.268536 
	C188.329514,49.268536 104.430908,49.268536 20.442606,49.268536 
	C20.442606,181.646561 20.442606,313.662201 20.442606,445.602112 
	C44.115273,445.602112 67.344994,445.602112 90.988342,445.602112 
	C90.988342,392.379181 90.988342,339.577240 91.038193,285.837433 
M1444.963379,172.514755 
	C1437.663208,167.635895 1430.784790,161.902390 1422.978027,158.050369 
	C1404.947144,149.153824 1385.636475,147.108490 1365.647583,148.838074 
	C1331.077515,151.829315 1305.303345,167.828857 1289.154297,198.804291 
	C1288.478516,200.100586 1287.646606,201.315552 1286.887573,202.568451 
	C1286.483154,202.418076 1286.078735,202.267715 1285.674316,202.117340 
	C1285.674316,151.204102 1285.674316,100.290848 1285.674316,49.326492 
	C1262.604614,49.326492 1240.057007,49.326492 1217.406006,49.326492 
	C1217.406006,181.648605 1217.406006,313.550018 1217.406006,445.663788 
	C1240.285278,445.663788 1262.835083,445.663788 1285.929565,445.663788 
	C1285.929565,443.524994 1285.929443,441.733551 1285.929443,439.942108 
	C1285.928955,387.612793 1285.888306,335.283417 1285.976440,282.954254 
	C1285.988159,275.983673 1286.089966,268.929230 1287.126221,262.060913 
	C1289.777588,244.489426 1297.347534,229.495117 1311.738525,218.419830 
	C1326.217285,207.277145 1342.588135,204.560471 1360.323853,206.841980 
	C1378.174561,209.138260 1391.779663,217.590530 1401.153198,233.048706 
	C1409.022461,246.025803 1411.373291,260.392822 1411.789307,275.110291 
	C1412.245850,291.263214 1411.981934,307.438629 1411.878052,323.603302 
	C1411.857788,326.765076 1412.710815,327.999817 1416.090698,327.977203 
	C1436.088135,327.843414 1456.087402,327.862854 1476.085327,327.957825 
	C1479.070068,327.971985 1480.226440,327.079803 1480.175293,323.979309 
	C1479.735229,297.343292 1480.450439,270.639038 1478.759155,244.086441 
	C1477.000122,216.471725 1465.980835,192.293640 1444.963379,172.514755 
M839.500793,451.946442 
	C849.280579,451.275574 859.057434,450.555756 868.841797,449.959961 
	C872.344604,449.746674 873.106689,447.901978 873.076233,444.702271 
	C872.941589,430.539948 873.027649,416.375610 873.000000,402.212067 
	C872.997498,400.933777 872.752136,399.655975 872.604492,398.232483 
	C870.327942,398.232483 868.355408,398.311523 866.390991,398.218842 
	C857.657959,397.806915 848.779419,398.186523 840.234131,396.684204 
	C830.133850,394.908508 823.225708,388.327942 820.990723,378.014679 
	C819.804077,372.538696 819.080505,366.847534 819.063965,361.250763 
	C818.917664,311.761902 818.976868,262.272461 818.975403,212.783188 
	C818.975403,211.018600 818.975464,209.254028 818.975464,206.961090 
	C837.270081,206.961090 854.848755,206.961090 872.578491,206.961090 
	C872.578491,189.070206 872.578491,171.720032 872.578491,153.813950 
	C854.566345,153.813950 836.991394,153.813950 818.831909,153.813950 
	C818.831909,129.030045 818.831909,104.800232 818.831909,80.432007 
	C795.348694,80.432007 772.466125,80.432007 748.973877,80.432007 
	C748.973877,105.040329 748.973877,129.269485 748.973877,154.212524 
	C735.004150,154.212524 721.628601,154.212524 708.388062,154.212524 
	C708.388062,172.174759 708.388062,189.409485 708.388062,207.173065 
	C722.051331,207.173065 735.303406,207.173065 749.087708,207.173065 
	C749.087708,209.655075 749.087708,211.615891 749.087708,213.576706 
	C749.087708,263.565887 748.919250,313.556061 749.221680,363.543396 
	C749.286682,374.289856 750.227112,385.181183 752.209167,395.734375 
	C756.219055,417.083710 767.515198,433.356293 787.914124,442.530914 
	C804.045349,449.786072 821.121399,451.635345 839.500793,451.946442 
M672.872986,360.500000 
	C672.872986,256.773682 672.872986,153.047348 672.872986,49.347130 
	C649.511902,49.347130 626.964417,49.347130 604.351074,49.347130 
	C604.351074,181.666229 604.351074,313.543549 604.351074,445.677063 
	C627.223328,445.677063 649.768433,445.677063 672.872803,445.677063 
	C672.872803,417.392578 672.872803,389.446289 672.872986,360.500000 
M1654.005249,137.470337 
	C1654.005249,132.182083 1654.005249,126.893814 1654.005249,121.555046 
	C1663.257202,119.662560 1672.022583,117.869591 1680.667969,116.101181 
	C1680.667969,103.570854 1680.667969,91.340454 1680.667969,79.250290 
	C1659.732178,79.250290 1639.133057,79.250290 1618.019043,79.250290 
	C1618.019043,101.900505 1618.019043,124.300079 1618.019043,146.984558 
	C1601.729614,146.984558 1585.954956,146.984558 1570.084839,146.984558 
	C1569.422729,149.081497 1568.837891,150.933411 1568.440674,152.191162 
	C1560.606079,150.433929 1553.131836,147.707397 1545.516235,147.228851 
	C1510.146240,145.006485 1482.115601,171.736481 1482.056885,207.222046 
	C1481.992676,246.048401 1482.032471,284.874939 1482.026978,323.701385 
	C1482.026733,324.991394 1482.027100,326.281433 1482.027100,327.636810 
	C1519.784790,327.636810 1557.144409,327.636810 1594.471313,327.636810 
	C1594.648438,325.562531 1594.792847,323.869965 1594.937378,322.177399 
	C1595.318848,322.198822 1595.700439,322.220245 1596.082031,322.241699 
	C1596.082031,364.779083 1596.082031,407.316467 1596.082031,449.692017 
	C1627.366089,449.692017 1658.102661,449.692017 1689.230469,449.692017 
	C1689.230469,408.977966 1689.230469,368.576355 1689.230469,327.807800 
	C1723.538208,327.807800 1757.452881,327.807800 1791.721680,327.807800 
	C1791.721680,326.152008 1791.721558,324.845490 1791.721558,323.538940 
	C1791.721191,284.879120 1791.782471,246.219162 1791.702515,207.559494 
	C1791.630615,172.855164 1765.679932,147.038879 1730.966309,147.000183 
	C1706.970581,146.973434 1682.974731,146.995590 1658.979004,146.995880 
	C1657.384277,146.995895 1655.789429,146.995880 1654.005249,146.995880 
	C1654.005249,143.753983 1654.005249,141.105881 1654.005249,137.470337 
z"/>
<path fill="#78C1EF" opacity="1.000000" stroke="none" 
	d="
M547.014954,381.000000 
	C547.014954,402.784698 547.014954,424.069397 547.014954,445.682312 
	C524.211487,445.682312 501.968323,445.682312 478.810028,445.682312 
	C478.810028,430.989807 478.810028,416.330078 478.810028,401.670349 
	C478.397217,401.596710 477.984375,401.523071 477.571564,401.449463 
	C474.219696,406.052277 471.068237,410.818024 467.481567,415.229980 
	C451.396545,435.016083 430.357910,446.278809 405.350098,449.859100 
	C382.998840,453.059052 361.093384,450.710236 340.540588,440.914062 
	C314.356598,428.433899 297.878967,408.153534 292.890930,379.144379 
	C289.238922,357.905457 291.625763,337.700836 303.401672,319.230896 
	C312.677856,304.681641 326.203918,295.142914 341.706238,288.315094 
	C361.752899,279.485870 382.990082,276.035065 404.735718,274.911224 
	C427.982361,273.709747 451.217468,272.269287 474.443542,270.721985 
	C475.934326,270.622681 478.548187,268.694061 478.536163,267.640442 
	C478.426666,258.035583 478.842316,248.263000 477.203949,238.870972 
	C473.766022,219.162735 460.600464,208.219177 441.609772,204.535660 
	C424.502380,201.217453 407.424866,201.748520 391.427460,209.838989 
	C379.569733,215.835892 371.383972,225.116318 368.176880,238.251709 
	C367.577332,240.707336 366.830353,242.065643 364.022247,242.052368 
	C344.693146,241.961014 325.363464,241.986008 306.034027,241.952133 
	C305.567261,241.951309 305.100983,241.701233 304.131165,241.423004 
	C303.925842,231.716492 306.337402,222.481155 309.806030,213.523575 
	C319.771149,187.788971 338.688049,170.885941 363.485992,160.049789 
	C379.811829,152.915756 397.006897,149.809494 414.783142,148.728729 
	C437.798798,147.329391 460.342163,149.146286 482.077301,156.974945 
	C509.273499,166.770615 530.701782,183.490723 540.862488,211.416931 
	C544.433105,221.230789 546.584290,232.103546 546.726135,242.528931 
	C547.351685,288.512085 547.007751,334.508423 547.014954,381.000000 
M386.479340,395.159424 
	C399.104584,399.070984 411.912415,399.777863 424.851868,397.107391 
	C470.312988,387.725098 482.934204,354.619904 478.026764,316.059082 
	C476.448975,316.059082 474.811127,315.974976 473.184052,316.071991 
	C456.100769,317.090729 438.989685,317.801849 421.947784,319.298492 
	C410.914551,320.267487 399.707825,321.372772 389.067902,324.234985 
	C371.111023,329.065582 358.366943,341.985535 359.963898,363.322937 
	C361.205200,379.908478 371.123901,389.292419 386.479340,395.159424 
z"/>
<path fill="#78C1EF" opacity="1.000000" stroke="none" 
	d="
M923.260498,417.693695 
	C903.819519,392.529663 900.114868,364.719391 908.962158,335.278595 
	C916.041504,311.721191 933.738892,297.598206 955.448608,288.090302 
	C975.352844,279.373108 996.445679,275.991302 1018.033325,274.899750 
	C1040.949463,273.741028 1063.847290,272.218445 1086.754272,270.877319 
	C1090.213745,270.674774 1092.258789,269.606110 1091.940796,265.459198 
	C1091.242554,256.353973 1091.956421,247.022858 1090.252930,238.136871 
	C1086.713501,219.674515 1074.467163,208.959503 1056.453247,204.943726 
	C1040.385986,201.361923 1024.339478,201.670929 1008.888489,207.931381 
	C994.648804,213.701096 984.879883,223.746033 980.970825,238.986786 
	C980.679626,240.121979 979.362488,241.852798 978.510742,241.859604 
	C958.221191,242.021835 937.929932,241.985718 916.010925,241.985718 
	C918.099609,232.875351 919.233093,224.313919 922.035950,216.339218 
	C933.546448,183.589737 958.301208,165.073883 990.272766,155.114441 
	C1010.634521,148.771561 1031.578613,147.369766 1052.895752,148.741608 
	C1074.151489,150.109497 1094.433105,154.540146 1113.009888,165.079971 
	C1143.053467,182.125610 1159.714111,207.829330 1159.928345,242.677139 
	C1160.334717,308.839600 1160.062866,375.006256 1160.063599,441.171173 
	C1160.063721,442.491791 1159.952271,443.812408 1159.873047,445.573212 
	C1137.365845,445.573212 1114.995483,445.573212 1091.716675,445.573212 
	C1091.716675,430.869476 1091.716675,416.204224 1091.716675,401.538971 
	C1069.128540,436.382446 1037.346802,452.198151 996.848694,450.883545 
	C968.030579,449.948090 942.855164,440.273895 923.260498,417.693695 
M1091.872803,319.766113 
	C1092.306152,316.514648 1090.612427,315.825836 1087.736938,316.008240 
	C1069.982666,317.134430 1052.204102,317.935089 1034.471436,319.324982 
	C1024.730835,320.088470 1014.926025,321.160126 1005.398743,323.234436 
	C993.712097,325.778931 983.472717,331.450928 977.366028,342.342987 
	C966.469177,361.778992 975.356873,385.667114 996.333313,393.899445 
	C1010.550903,399.479218 1025.269287,400.242065 1039.955444,396.854156 
	C1065.550781,390.949707 1084.249390,376.734192 1090.178467,350.015137 
	C1092.270996,340.585083 1091.395386,330.496399 1091.872803,319.766113 
z"/>
<path fill="#78C1EF" opacity="1.000000" stroke="none" 
	d="
M91.013268,286.306366 
	C90.988342,339.577240 90.988342,392.379181 90.988342,445.602112 
	C67.344994,445.602112 44.115273,445.602112 20.442606,445.602112 
	C20.442606,313.662201 20.442606,181.646561 20.442606,49.268536 
	C104.430908,49.268536 188.329514,49.268536 272.661011,49.268536 
	C272.661011,68.841705 272.661011,88.401161 272.661011,108.706177 
	C212.346817,108.706177 151.986633,108.706177 91.302589,108.706177 
	C91.302589,148.025208 91.302589,186.602982 91.302589,225.802246 
	C146.608032,225.802246 201.830780,225.802246 257.553894,225.802246 
	C257.677948,227.989487 257.845428,229.589783 257.847595,231.190308 
	C257.868713,246.854935 257.701752,262.522308 257.962341,278.182617 
	C258.039703,282.830811 256.573608,284.084290 251.996536,284.071045 
	C200.336914,283.921326 148.676651,283.953888 97.016792,284.052246 
	C95.022804,284.056030 93.031013,285.216156 91.013268,286.306366 
z"/>
<path fill="#78C1EF" opacity="1.000000" stroke="none" 
	d="
M1445.223877,172.757843 
	C1465.980835,192.293640 1477.000122,216.471725 1478.759155,244.086441 
	C1480.450439,270.639038 1479.735229,297.343292 1480.175293,323.979309 
	C1480.226440,327.079803 1479.070068,327.971985 1476.085327,327.957825 
	C1456.087402,327.862854 1436.088135,327.843414 1416.090698,327.977203 
	C1412.710815,327.999817 1411.857788,326.765076 1411.878052,323.603302 
	C1411.981934,307.438629 1412.245850,291.263214 1411.789307,275.110291 
	C1411.373291,260.392822 1409.022461,246.025803 1401.153198,233.048706 
	C1391.779663,217.590530 1378.174561,209.138260 1360.323853,206.841980 
	C1342.588135,204.560471 1326.217285,207.277145 1311.738525,218.419830 
	C1297.347534,229.495117 1289.777588,244.489426 1287.126221,262.060913 
	C1286.089966,268.929230 1285.988159,275.983673 1285.976440,282.954254 
	C1285.888306,335.283417 1285.928955,387.612793 1285.929443,439.942108 
	C1285.929443,441.733551 1285.929565,443.524994 1285.929565,445.663788 
	C1262.835083,445.663788 1240.285278,445.663788 1217.406006,445.663788 
	C1217.406006,313.550018 1217.406006,181.648605 1217.406006,49.326492 
	C1240.057007,49.326492 1262.604614,49.326492 1285.674316,49.326492 
	C1285.674316,100.290848 1285.674316,151.204102 1285.674316,202.117340 
	C1286.078735,202.267715 1286.483154,202.418076 1286.887573,202.568451 
	C1287.646606,201.315552 1288.478516,200.100586 1289.154297,198.804291 
	C1305.303345,167.828857 1331.077515,151.829315 1365.647583,148.838074 
	C1385.636475,147.108490 1404.947144,149.153824 1422.978027,158.050369 
	C1430.784790,161.902390 1437.663208,167.635895 1445.223877,172.757843 
z"/>
<path fill="#78C1EF" opacity="1.000000" stroke="none" 
	d="
M839.007202,451.944397 
	C821.121399,451.635345 804.045349,449.786072 787.914124,442.530914 
	C767.515198,433.356293 756.219055,417.083710 752.209167,395.734375 
	C750.227112,385.181183 749.286682,374.289856 749.221680,363.543396 
	C748.919250,313.556061 749.087708,263.565887 749.087708,213.576706 
	C749.087708,211.615891 749.087708,209.655075 749.087708,207.173065 
	C735.303406,207.173065 722.051331,207.173065 708.388062,207.173065 
	C708.388062,189.409485 708.388062,172.174759 708.388062,154.212524 
	C721.628601,154.212524 735.004150,154.212524 748.973877,154.212524 
	C748.973877,129.269485 748.973877,105.040329 748.973877,80.432007 
	C772.466125,80.432007 795.348694,80.432007 818.831909,80.432007 
	C818.831909,104.800232 818.831909,129.030045 818.831909,153.813950 
	C836.991394,153.813950 854.566345,153.813950 872.578491,153.813950 
	C872.578491,171.720032 872.578491,189.070206 872.578491,206.961090 
	C854.848755,206.961090 837.270081,206.961090 818.975464,206.961090 
	C818.975464,209.254028 818.975403,211.018600 818.975403,212.783188 
	C818.976868,262.272461 818.917664,311.761902 819.063965,361.250763 
	C819.080505,366.847534 819.804077,372.538696 820.990723,378.014679 
	C823.225708,388.327942 830.133850,394.908508 840.234131,396.684204 
	C848.779419,398.186523 857.657959,397.806915 866.390991,398.218842 
	C868.355408,398.311523 870.327942,398.232483 872.604492,398.232483 
	C872.752136,399.655975 872.997498,400.933777 873.000000,402.212067 
	C873.027649,416.375610 872.941589,430.539948 873.076233,444.702271 
	C873.106689,447.901978 872.344604,449.746674 868.841797,449.959961 
	C859.057434,450.555756 849.280579,451.275574 839.007202,451.944397 
z"/>
<path fill="#79C1EF" opacity="1.000000" stroke="none" 
	d="
M672.872925,361.000000 
	C672.872803,389.446289 672.872803,417.392578 672.872803,445.677063 
	C649.768433,445.677063 627.223328,445.677063 604.351074,445.677063 
	C604.351074,313.543549 604.351074,181.666229 604.351074,49.347130 
	C626.964417,49.347130 649.511902,49.347130 672.872986,49.347130 
	C672.872986,153.047348 672.872986,256.773682 672.872925,361.000000 
z"/>
<path fill="#020204" opacity="1.000000" stroke="none" 
	d="
M1654.005249,137.964050 
	C1654.005249,141.105881 1654.005249,143.753983 1654.005249,146.995880 
	C1655.789429,146.995880 1657.384277,146.995895 1658.979004,146.995880 
	C1682.974731,146.995590 1706.970581,146.973434 1730.966309,147.000183 
	C1765.679932,147.038879 1791.630615,172.855164 1791.702515,207.559494 
	C1791.782471,246.219162 1791.721191,284.879120 1791.721558,323.538940 
	C1791.721558,324.845490 1791.721680,326.152008 1791.721680,327.807800 
	C1757.452881,327.807800 1723.538208,327.807800 1689.230469,327.807800 
	C1689.230469,368.576355 1689.230469,408.977966 1689.230469,449.692017 
	C1658.102661,449.692017 1627.366089,449.692017 1596.082031,449.692017 
	C1596.082031,407.316467 1596.082031,364.779083 1596.082031,322.241699 
	C1595.700439,322.220245 1595.318848,322.198822 1594.937378,322.177399 
	C1594.792847,323.869965 1594.648438,325.562531 1594.471313,327.636810 
	C1557.144409,327.636810 1519.784790,327.636810 1482.027100,327.636810 
	C1482.027100,326.281433 1482.026733,324.991394 1482.026978,323.701385 
	C1482.032471,284.874939 1481.992676,246.048401 1482.056885,207.222046 
	C1482.115601,171.736481 1510.146240,145.006485 1545.516235,147.228851 
	C1553.131836,147.707397 1560.606079,150.433929 1568.440674,152.191162 
	C1568.837891,150.933411 1569.422729,149.081497 1570.084839,146.984558 
	C1585.954956,146.984558 1601.729614,146.984558 1618.019043,146.984558 
	C1618.019043,124.300079 1618.019043,101.900505 1618.019043,79.250290 
	C1639.133057,79.250290 1659.732178,79.250290 1680.667969,79.250290 
	C1680.667969,91.340454 1680.667969,103.570854 1680.667969,116.101181 
	C1672.022583,117.869591 1663.257202,119.662560 1654.005249,121.555046 
	C1654.005249,126.893814 1654.005249,132.182083 1654.005249,137.964050 
M1768.037598,175.358398 
	C1767.737549,175.161514 1767.437500,174.964630 1767.120117,174.870773 
	C1767.120117,174.870773 1767.217529,174.833008 1767.027100,174.225449 
	C1766.084229,173.402161 1765.141357,172.578857 1764.139038,171.862549 
	C1764.139038,171.862549 1764.255859,171.826111 1764.067261,171.302094 
	C1763.746460,171.135071 1763.425659,170.968033 1763.089355,170.910751 
	C1763.089355,170.910751 1763.197510,170.886475 1763.006470,170.360840 
	C1762.687500,170.190338 1762.368408,170.019836 1761.865479,169.388596 
	C1761.623657,169.131256 1761.326050,169.005707 1760.681396,168.422165 
	C1759.170288,167.545227 1757.659180,166.668289 1756.060181,165.920456 
	C1756.060181,165.920456 1756.192017,165.836716 1755.823120,165.248138 
	C1749.042847,163.179779 1742.295532,159.462341 1735.476807,159.326309 
	C1704.669067,158.711746 1673.841064,159.110397 1642.497803,158.923157 
	C1642.280396,158.621979 1642.062988,158.320801 1642.004395,157.090530 
	C1642.004395,142.111496 1642.004395,127.132477 1642.004395,111.814789 
	C1651.104370,109.916534 1659.991455,108.062683 1668.797607,106.225693 
	C1668.797607,100.972900 1668.797607,96.199074 1668.797607,91.292839 
	C1655.855469,91.292839 1643.145386,91.292839 1629.880249,91.292839 
	C1629.880249,133.713028 1629.880249,175.818130 1629.971069,217.970963 
	C1629.971069,217.970963 1629.923218,217.880219 1628.998901,217.947571 
	C1623.074219,217.947571 1617.149536,217.947571 1610.754761,217.947571 
	C1610.754761,197.898163 1610.754761,178.505493 1610.754761,159.362762 
	C1603.228027,159.362762 1596.199829,159.362762 1588.340210,159.362762 
	C1604.408081,175.613693 1608.543701,194.924393 1608.130005,216.267334 
	C1607.523071,247.578094 1607.974487,278.909393 1607.974854,310.231934 
	C1607.974854,312.016205 1607.974976,313.800476 1607.974976,315.804108 
	C1665.364624,315.804108 1722.261353,315.804108 1779.403809,315.804108 
	C1779.530396,314.661530 1779.728882,313.704041 1779.729126,312.746490 
	C1779.739380,277.092102 1779.880737,241.436417 1779.568115,205.784760 
	C1779.520020,200.310577 1777.368530,194.854858 1776.244141,189.145798 
	C1776.244141,189.145798 1776.045898,188.992310 1776.045288,188.310684 
	C1775.416504,187.144943 1774.787720,185.979218 1774.083862,184.944397 
	C1774.083862,184.944397 1774.206665,184.856506 1774.104614,184.166367 
	C1772.419922,181.752136 1770.735229,179.337921 1769.005371,176.986710 
	C1769.005371,176.986710 1769.079224,176.962891 1768.972412,176.421997 
	C1768.684326,176.217529 1768.396240,176.013062 1768.088989,175.912628 
	C1768.088989,175.912628 1768.192871,175.892761 1768.037598,175.358398 
M1576.144897,174.367523 
	C1567.498657,165.015045 1556.817993,159.648117 1544.113770,159.068954 
	C1516.124268,157.792999 1494.142822,178.915604 1494.062256,207.058319 
	C1493.962402,241.867844 1494.035767,276.677887 1494.051514,311.487701 
	C1494.052124,312.918457 1494.225830,314.349121 1494.321167,315.816742 
	C1525.837036,315.816742 1556.937012,315.816742 1588.264648,315.816742 
	C1588.409302,314.526947 1588.644897,313.403076 1588.645508,312.279114 
	C1588.663818,276.969666 1588.736084,241.659927 1588.615845,206.350876 
	C1588.575317,194.448929 1584.656372,183.840332 1576.144897,174.367523 
M1677.005249,429.449890 
	C1677.005249,398.032959 1677.005249,366.616028 1677.005249,335.232788 
	C1668.359009,335.232788 1660.421265,335.232788 1652.272095,335.232788 
	C1652.272095,369.529541 1652.272095,403.584808 1652.272095,437.687500 
	C1660.611816,437.687500 1668.669800,437.687500 1677.005127,437.687500 
	C1677.005127,435.053131 1677.005127,432.742004 1677.005249,429.449890 
M1608.105103,383.500000 
	C1608.105103,401.572083 1608.105103,419.644165 1608.105103,437.656250 
	C1616.706299,437.656250 1624.757690,437.656250 1632.663574,437.656250 
	C1632.663574,403.268616 1632.663574,369.238861 1632.663574,335.325073 
	C1624.413696,335.325073 1616.510010,335.325073 1608.107300,335.325073 
	C1608.107300,351.269470 1608.107300,366.884735 1608.105103,383.500000 
z"/>
<path fill="#EBEBEB" opacity="1.000000" stroke="none" 
	d="
M1497.157959,354.980347 
	C1502.683838,358.102936 1503.682739,363.947540 1503.780884,369.074554 
	C1504.227661,392.396118 1504.371826,415.740906 1503.794189,439.056763 
	C1503.538330,449.387238 1500.089233,456.595612 1486.442993,456.967072 
	C1478.866577,457.173309 1471.279785,456.978668 1463.701050,457.132141 
	C1455.497070,457.298340 1447.296997,457.870514 1439.095093,457.876587 
	C1430.722046,457.882812 1422.349609,457.374542 1413.975098,457.172089 
	C1408.567139,457.041382 1403.152832,456.924225 1397.746216,457.035492 
	C1389.416138,457.207001 1383.196167,449.086456 1383.114746,441.073975 
	C1382.864380,416.413208 1382.859863,391.746460 1383.137817,367.086304 
	C1383.207031,360.952698 1386.303589,355.741608 1391.779053,352.473511 
	C1391.535645,354.740814 1390.587036,356.621490 1390.578735,358.506348 
	C1390.465942,384.171967 1390.556152,409.838684 1390.392700,435.503815 
	C1390.367310,439.505920 1391.679199,440.528198 1395.578735,440.510193 
	C1427.577148,440.362335 1459.576782,440.345398 1491.574707,440.528595 
	C1495.942017,440.553558 1497.242065,439.440247 1497.210083,434.974213 
	C1497.019165,408.310852 1497.141113,381.645203 1497.157959,354.980347 
z"/>
<path fill="#2E2E2E" opacity="1.000000" stroke="none" 
	d="
M1496.941284,354.704163 
	C1497.141113,381.645203 1497.019165,408.310852 1497.210083,434.974213 
	C1497.242065,439.440247 1495.942017,440.553558 1491.574707,440.528595 
	C1459.576782,440.345398 1427.577148,440.362335 1395.578735,440.510193 
	C1391.679199,440.528198 1390.367310,439.505920 1390.392700,435.503815 
	C1390.556152,409.838684 1390.465942,384.171967 1390.578735,358.506348 
	C1390.587036,356.621490 1391.535645,354.740814 1392.141113,352.483582 
	C1393.266235,351.171936 1394.297485,350.234894 1395.947021,349.814545 
	C1396.002197,351.504761 1395.439209,352.678253 1394.697388,354.224579 
	C1405.506836,354.224579 1416.151489,354.275482 1426.794067,354.146271 
	C1427.865723,354.133270 1429.575439,353.261810 1429.883301,352.395752 
	C1431.872314,346.799042 1433.554199,341.093048 1435.532593,334.799835 
	C1428.665771,334.799835 1422.464355,335.369934 1416.415283,334.653564 
	C1409.076904,333.784485 1404.719482,336.362061 1401.862305,343.070587 
	C1400.746216,345.691223 1397.943604,347.593628 1395.909180,349.823181 
	C1395.763306,349.742920 1395.617310,349.662659 1395.471436,349.582428 
	C1398.605103,344.163391 1401.382446,338.480255 1405.086426,333.484100 
	C1406.216675,331.959473 1409.893188,331.903809 1412.407593,331.889862 
	C1433.888794,331.770660 1455.372437,331.949005 1476.851318,331.699707 
	C1481.140015,331.649933 1483.534790,333.128021 1485.585449,336.671936 
	C1489.082520,342.715576 1492.989624,348.521973 1496.941284,354.704163 
M1435.883179,437.462891 
	C1451.932739,437.375397 1467.982178,437.287872 1484.918823,437.508392 
	C1487.863647,437.508392 1490.808472,437.508392 1493.869141,437.508392 
	C1493.869141,410.468842 1493.869141,383.977539 1493.869141,357.494995 
	C1481.898193,357.494995 1470.356079,357.494995 1457.990234,357.494995 
	C1457.990234,367.217712 1457.990234,376.546844 1457.990234,387.318390 
	C1453.568237,384.161560 1450.218506,382.081146 1447.248047,379.554871 
	C1444.711182,377.397339 1442.820435,377.576569 1440.353516,379.635986 
	C1437.281128,382.200897 1433.872192,384.362823 1430.608643,386.698761 
	C1430.166626,386.399475 1429.724731,386.100189 1429.282715,385.800903 
	C1429.282715,376.434906 1429.282715,367.068878 1429.282715,357.405518 
	C1417.031616,357.405518 1405.483643,357.405518 1393.381470,357.405518 
	C1393.381470,360.593597 1393.383789,363.538177 1393.381226,366.482758 
	C1393.362183,388.626556 1393.350342,410.770386 1393.310059,432.914154 
	C1393.305664,435.278320 1392.809204,437.651123 1396.557007,437.589539 
	C1409.358765,437.379150 1422.163086,437.332611 1435.883179,437.462891 
M1479.485718,354.218201 
	C1483.593628,354.218201 1487.701538,354.218201 1492.894287,354.218201 
	C1488.680542,347.542908 1485.012207,341.692291 1481.276611,335.884979 
	C1480.965088,335.400818 1480.201904,334.926483 1479.645386,334.922760 
	C1470.747681,334.862976 1461.849365,334.880646 1452.467651,334.880646 
	C1454.260010,341.265320 1455.670044,346.896118 1457.539062,352.370148 
	C1457.864990,353.325104 1460.109131,354.088562 1461.495239,354.136963 
	C1467.154053,354.334564 1472.823608,354.220276 1479.485718,354.218201 
M1454.041016,357.147797 
	C1446.805542,357.147797 1439.570068,357.147797 1432.262451,357.147797 
	C1432.262451,365.566254 1432.262451,373.246918 1432.262451,381.743439 
	C1434.189575,380.515411 1435.548218,379.697266 1436.857910,378.807343 
	C1445.515503,372.924683 1442.455444,373.186371 1450.710571,378.664429 
	C1452.114624,379.596130 1453.674805,380.292694 1456.188110,381.652710 
	C1455.725098,372.760162 1455.324951,365.075439 1454.041016,357.147797 
M1436.901855,340.451904 
	C1435.573853,344.844635 1434.245972,349.237396 1432.823608,353.942078 
	C1440.472778,353.942078 1447.528442,353.942078 1455.056641,353.942078 
	C1453.521362,348.967896 1451.935791,344.451141 1450.763550,339.829559 
	C1449.886475,336.372375 1448.604248,334.427399 1444.461548,334.635284 
	C1440.661255,334.825989 1437.451172,334.841980 1436.901855,340.451904 
z"/>
<path fill="#FDFFFF" opacity="1.000000" stroke="none" 
	d="
M386.106567,395.033997 
	C371.123901,389.292419 361.205200,379.908478 359.963898,363.322937 
	C358.366943,341.985535 371.111023,329.065582 389.067902,324.234985 
	C399.707825,321.372772 410.914551,320.267487 421.947784,319.298492 
	C438.989685,317.801849 456.100769,317.090729 473.184052,316.071991 
	C474.811127,315.974976 476.448975,316.059082 478.026764,316.059082 
	C482.934204,354.619904 470.312988,387.725098 424.851868,397.107391 
	C411.912415,399.777863 399.104584,399.070984 386.106567,395.033997 
z"/>
<path fill="#FDFFFF" opacity="1.000000" stroke="none" 
	d="
M1091.873779,320.237244 
	C1091.395386,330.496399 1092.270996,340.585083 1090.178467,350.015137 
	C1084.249390,376.734192 1065.550781,390.949707 1039.955444,396.854156 
	C1025.269287,400.242065 1010.550903,399.479218 996.333313,393.899445 
	C975.356873,385.667114 966.469177,361.778992 977.366028,342.342987 
	C983.472717,331.450928 993.712097,325.778931 1005.398743,323.234436 
	C1014.926025,321.160126 1024.730835,320.088470 1034.471436,319.324982 
	C1052.204102,317.935089 1069.982666,317.134430 1087.736938,316.008240 
	C1090.612427,315.825836 1092.306152,316.514648 1091.873779,320.237244 
z"/>
<path fill="#77C1F0" opacity="1.000000" stroke="none" 
	d="
M1760.972900,169.011932 
	C1761.326050,169.005707 1761.623657,169.131256 1762.057617,169.878174 
	C1762.565674,170.540665 1762.881592,170.713562 1763.197510,170.886475 
	C1763.197510,170.886475 1763.089355,170.910751 1763.185059,171.125031 
	C1763.605713,171.501556 1763.930786,171.663818 1764.255859,171.826096 
	C1764.255859,171.826111 1764.139038,171.862549 1764.137451,172.178391 
	C1765.163208,173.273819 1766.190308,174.053406 1767.217529,174.833008 
	C1767.217529,174.833008 1767.120117,174.870773 1767.194214,175.094086 
	C1767.576538,175.509201 1767.884644,175.700989 1768.192871,175.892776 
	C1768.192871,175.892761 1768.088989,175.912628 1768.163208,176.122986 
	C1768.518066,176.543182 1768.798706,176.753006 1769.079224,176.962860 
	C1769.079224,176.962891 1769.005371,176.986710 1769.012085,177.334778 
	C1770.748047,180.074081 1772.477417,182.465286 1774.206665,184.856506 
	C1774.206665,184.856506 1774.083862,184.944397 1774.068359,185.270432 
	C1774.717041,186.728424 1775.381470,187.860382 1776.045898,188.992325 
	C1776.045898,188.992310 1776.244141,189.145798 1776.163330,189.733414 
	C1776.721802,194.220322 1777.900635,198.117432 1777.916382,202.019241 
	C1778.060425,237.680084 1777.968994,273.341858 1778.053833,309.003052 
	C1778.062378,312.597382 1776.935303,314.061310 1773.176880,314.055817 
	C1720.184814,313.978455 1667.192505,313.978973 1614.200439,314.061584 
	C1610.898560,314.066742 1609.888184,312.976532 1609.937256,309.740845 
	C1610.096436,299.244843 1609.995239,288.744843 1609.995239,278.246399 
	C1609.995239,260.415680 1610.090454,242.584076 1609.919189,224.755005 
	C1609.883667,221.050644 1610.919189,219.640915 1614.707642,219.932999 
	C1618.517700,220.226730 1622.380615,220.169556 1626.193970,219.897598 
	C1627.478516,219.806000 1628.682495,218.585037 1629.923218,217.880219 
	C1629.923218,217.880219 1629.971069,217.970963 1630.291748,217.917297 
	C1631.073242,213.994858 1631.923584,210.127182 1631.934448,206.257156 
	C1632.036865,170.154968 1632.063354,134.052063 1631.909546,97.950241 
	C1631.890137,93.403915 1633.176636,91.699402 1637.859253,91.913246 
	C1645.164307,92.246834 1652.495850,92.001305 1659.816162,92.001534 
	C1668.212524,92.001801 1669.797241,93.875923 1667.818970,102.222481 
	C1667.481445,103.645683 1665.766602,105.452629 1664.372314,105.794266 
	C1657.712280,107.426216 1650.980103,108.868019 1644.197144,109.848808 
	C1640.990479,110.312469 1639.946533,111.510040 1639.967285,114.585938 
	C1640.057129,127.894997 1639.959351,141.205460 1640.085205,154.513947 
	C1640.096436,155.687958 1641.232056,156.851303 1641.845459,158.019623 
	C1642.062988,158.320801 1642.280396,158.621979 1643.074097,159.300873 
	C1645.463257,159.785934 1647.276123,159.985443 1649.089111,159.986786 
	C1676.176514,160.006790 1703.264038,159.957642 1730.351074,160.059570 
	C1733.443481,160.071228 1736.586548,160.668930 1739.611694,161.390366 
	C1745.175537,162.717163 1750.669189,164.338272 1756.192017,165.836700 
	C1756.192017,165.836716 1756.060181,165.920456 1756.092529,166.236771 
	C1757.740967,167.372696 1759.356934,168.192291 1760.972900,169.011932 
z"/>
<path fill="#77C0EE" opacity="1.000000" stroke="none" 
	d="
M1576.391602,174.625488 
	C1584.656372,183.840332 1588.575317,194.448929 1588.615845,206.350876 
	C1588.736084,241.659927 1588.663818,276.969666 1588.645508,312.279114 
	C1588.644897,313.403076 1588.409302,314.526947 1588.264648,315.816742 
	C1556.937012,315.816742 1525.837036,315.816742 1494.321167,315.816742 
	C1494.225830,314.349121 1494.052124,312.918457 1494.051514,311.487701 
	C1494.035767,276.677887 1493.962402,241.867844 1494.062256,207.058319 
	C1494.142822,178.915604 1516.124268,157.792999 1544.113770,159.068954 
	C1556.817993,159.648117 1567.498657,165.015045 1576.391602,174.625488 
z"/>
<path fill="#79C0ED" opacity="1.000000" stroke="none" 
	d="
M1677.005127,429.940369 
	C1677.005127,432.742004 1677.005127,435.053131 1677.005127,437.687500 
	C1668.669800,437.687500 1660.611816,437.687500 1652.272095,437.687500 
	C1652.272095,403.584808 1652.272095,369.529541 1652.272095,335.232788 
	C1660.421265,335.232788 1668.359009,335.232788 1677.005249,335.232788 
	C1677.005249,366.616028 1677.005249,398.032959 1677.005127,429.940369 
z"/>
<path fill="#78BFEC" opacity="1.000000" stroke="none" 
	d="
M1608.106201,383.000000 
	C1608.107300,366.884735 1608.107300,351.269470 1608.107300,335.325073 
	C1616.510010,335.325073 1624.413696,335.325073 1632.663574,335.325073 
	C1632.663574,369.238861 1632.663574,403.268616 1632.663574,437.656250 
	C1624.757690,437.656250 1616.706299,437.656250 1608.105103,437.656250 
	C1608.105103,419.644165 1608.105103,401.572083 1608.106201,383.000000 
z"/>
<path fill="#7DBAE0" opacity="1.000000" stroke="none" 
	d="
M1629.461060,217.913910 
	C1628.682495,218.585037 1627.478516,219.806000 1626.193970,219.897598 
	C1622.380615,220.169556 1618.517700,220.226730 1614.707642,219.932999 
	C1610.919189,219.640915 1609.883667,221.050644 1609.919189,224.755005 
	C1610.090454,242.584076 1609.995239,260.415680 1609.995239,278.246399 
	C1609.995239,288.744843 1610.096436,299.244843 1609.937256,309.740845 
	C1609.888184,312.976532 1610.898560,314.066742 1614.200439,314.061584 
	C1667.192505,313.978973 1720.184814,313.978455 1773.176880,314.055817 
	C1776.935303,314.061310 1778.062378,312.597382 1778.053833,309.003052 
	C1777.968994,273.341858 1778.060425,237.680084 1777.916382,202.019241 
	C1777.900635,198.117432 1776.721802,194.220322 1776.136230,189.855820 
	C1777.368530,194.854858 1779.520020,200.310577 1779.568115,205.784760 
	C1779.880737,241.436417 1779.739380,277.092102 1779.729126,312.746490 
	C1779.728882,313.704041 1779.530396,314.661530 1779.403809,315.804108 
	C1722.261353,315.804108 1665.364624,315.804108 1607.974976,315.804108 
	C1607.974976,313.800476 1607.974854,312.016205 1607.974854,310.231934 
	C1607.974487,278.909393 1607.523071,247.578094 1608.130005,216.267334 
	C1608.543701,194.924393 1604.408081,175.613693 1588.340210,159.362762 
	C1596.199829,159.362762 1603.228027,159.362762 1610.754761,159.362762 
	C1610.754761,178.505493 1610.754761,197.898163 1610.754761,217.947571 
	C1617.149536,217.947571 1623.074219,217.947571 1629.461060,217.913910 
z"/>
<path fill="#7DBAE0" opacity="1.000000" stroke="none" 
	d="
M1641.925049,157.555054 
	C1641.232056,156.851303 1640.096436,155.687958 1640.085205,154.513947 
	C1639.959351,141.205460 1640.057129,127.894997 1639.967285,114.585938 
	C1639.946533,111.510040 1640.990479,110.312469 1644.197144,109.848808 
	C1650.980103,108.868019 1657.712280,107.426216 1664.372314,105.794266 
	C1665.766602,105.452629 1667.481445,103.645683 1667.818970,102.222481 
	C1669.797241,93.875923 1668.212524,92.001801 1659.816162,92.001534 
	C1652.495850,92.001305 1645.164307,92.246834 1637.859253,91.913246 
	C1633.176636,91.699402 1631.890137,93.403915 1631.909546,97.950241 
	C1632.063354,134.052063 1632.036865,170.154968 1631.934448,206.257156 
	C1631.923584,210.127182 1631.073242,213.994858 1630.246338,217.893433 
	C1629.880249,175.818130 1629.880249,133.713028 1629.880249,91.292839 
	C1643.145386,91.292839 1655.855469,91.292839 1668.797607,91.292839 
	C1668.797607,96.199074 1668.797607,100.972900 1668.797607,106.225693 
	C1659.991455,108.062683 1651.104370,109.916534 1642.004395,111.814789 
	C1642.004395,127.132477 1642.004395,142.111496 1641.925049,157.555054 
z"/>
<path fill="#7DBAE0" opacity="1.000000" stroke="none" 
	d="
M1756.007568,165.542419 
	C1750.669189,164.338272 1745.175537,162.717163 1739.611694,161.390366 
	C1736.586548,160.668930 1733.443481,160.071228 1730.351074,160.059570 
	C1703.264038,159.957642 1676.176514,160.006790 1649.089111,159.986786 
	C1647.276123,159.985443 1645.463257,159.785934 1643.335449,159.411316 
	C1673.841064,159.110397 1704.669067,158.711746 1735.476807,159.326309 
	C1742.295532,159.462341 1749.042847,163.179779 1756.007568,165.542419 
z"/>
<path fill="#7DBAE0" opacity="1.000000" stroke="none" 
	d="
M1774.155640,184.511429 
	C1772.477417,182.465286 1770.748047,180.074081 1769.034668,177.303284 
	C1770.735229,179.337921 1772.419922,181.752136 1774.155640,184.511429 
z"/>
<path fill="#7DBAE0" opacity="1.000000" stroke="none" 
	d="
M1760.827148,168.717041 
	C1759.356934,168.192291 1757.740967,167.372696 1756.136475,166.172211 
	C1757.659180,166.668289 1759.170288,167.545227 1760.827148,168.717041 
z"/>
<path fill="#7DBAE0" opacity="1.000000" stroke="none" 
	d="
M1767.122314,174.529236 
	C1766.190308,174.053406 1765.163208,173.273819 1764.167236,172.124908 
	C1765.141357,172.578857 1766.084229,173.402161 1767.122314,174.529236 
z"/>
<path fill="#7DBAE0" opacity="1.000000" stroke="none" 
	d="
M1776.045654,188.651520 
	C1775.381470,187.860382 1774.717041,186.728424 1774.105957,185.204987 
	C1774.787720,185.979218 1775.416504,187.144943 1776.045654,188.651520 
z"/>
<path fill="#7DBAE0" opacity="1.000000" stroke="none" 
	d="
M1763.102051,170.623657 
	C1762.881592,170.713562 1762.565674,170.540665 1762.149658,170.108551 
	C1762.368408,170.019836 1762.687500,170.190338 1763.102051,170.623657 
z"/>
<path fill="#7DBAE0" opacity="1.000000" stroke="none" 
	d="
M1769.025879,176.692413 
	C1768.798706,176.753006 1768.518066,176.543182 1768.172852,176.070984 
	C1768.396240,176.013062 1768.684326,176.217529 1769.025879,176.692413 
z"/>
<path fill="#7DBAE0" opacity="1.000000" stroke="none" 
	d="
M1768.115234,175.625595 
	C1767.884644,175.700989 1767.576538,175.509201 1767.202881,175.042572 
	C1767.437500,174.964630 1767.737549,175.161514 1768.115234,175.625595 
z"/>
<path fill="#7DBAE0" opacity="1.000000" stroke="none" 
	d="
M1764.161621,171.564087 
	C1763.930786,171.663818 1763.605713,171.501556 1763.192749,171.070160 
	C1763.425659,170.968033 1763.746460,171.135071 1764.161621,171.564087 
z"/>
<path fill="#EBEBEB" opacity="1.000000" stroke="none" 
	d="
M1434.966309,437.223511 
	C1422.163086,437.332611 1409.358765,437.379150 1396.557007,437.589539 
	C1392.809204,437.651123 1393.305664,435.278320 1393.310059,432.914154 
	C1393.350342,410.770386 1393.362183,388.626556 1393.381226,366.482758 
	C1393.383789,363.538177 1393.381470,360.593597 1393.381470,357.405518 
	C1405.483643,357.405518 1417.031616,357.405518 1429.282715,357.405518 
	C1429.282715,367.068878 1429.282715,376.434906 1429.282715,385.800903 
	C1429.724731,386.100189 1430.166626,386.399475 1430.608643,386.698761 
	C1433.872192,384.362823 1437.281128,382.200897 1440.353516,379.635986 
	C1442.820435,377.576569 1444.711182,377.397339 1447.248047,379.554871 
	C1450.218506,382.081146 1453.568237,384.161560 1457.990234,387.318390 
	C1457.990234,376.546844 1457.990234,367.217712 1457.990234,357.494995 
	C1470.356079,357.494995 1481.898193,357.494995 1493.869141,357.494995 
	C1493.869141,383.977539 1493.869141,410.468842 1493.869141,437.508392 
	C1490.808472,437.508392 1487.863647,437.508392 1484.466431,436.900024 
	C1484.347534,433.169983 1484.945557,430.050293 1484.968994,426.926300 
	C1485.073486,412.933563 1485.041870,398.939545 1485.000244,384.946167 
	C1484.985352,379.925110 1481.884644,375.910553 1477.569214,375.064423 
	C1471.471191,373.868774 1467.376465,375.635376 1465.266602,380.827393 
	C1464.417603,382.916595 1464.156616,385.324585 1464.022827,387.610626 
	C1463.483276,396.819214 1458.137329,400.750366 1449.067505,399.303314 
	C1445.004272,398.655029 1440.662964,399.189453 1436.522339,399.743958 
	C1432.427002,400.292389 1428.434814,400.167694 1426.259277,396.511444 
	C1424.234863,393.109467 1422.639648,389.097107 1422.182129,385.197906 
	C1421.422729,378.724701 1417.745972,373.929871 1411.648926,374.225708 
	C1406.653564,374.468048 1400.385254,378.119965 1400.923340,385.567047 
	C1401.532471,393.998016 1401.666138,402.463318 1401.874512,411.219727 
	C1402.667603,412.257477 1403.587158,413.614624 1404.518677,413.622711 
	C1412.557983,413.692596 1420.599365,413.519440 1428.732910,413.947144 
	C1428.729492,415.892792 1428.633423,417.310059 1428.102051,418.674957 
	C1418.926636,418.280792 1410.197998,418.146210 1401.506470,418.660065 
	C1401.534180,419.429474 1401.561768,420.198853 1401.589478,420.968262 
	C1410.684082,420.968262 1419.778564,420.968262 1429.252441,421.004608 
	C1430.742676,422.735657 1432.334961,424.294067 1432.861450,426.154144 
	C1433.880371,429.754150 1434.298950,433.524048 1434.966309,437.223511 
M1424.190796,429.268738 
	C1425.698242,429.105743 1427.205688,428.942749 1429.376953,428.707977 
	C1425.191406,425.215057 1404.062500,425.456543 1400.978760,429.272522 
	C1408.858887,429.272522 1416.055908,429.272522 1424.190796,429.268738 
z"/>
<path fill="#FDFDFD" opacity="1.000000" stroke="none" 
	d="
M1428.537354,418.727325 
	C1428.633423,417.310059 1428.729492,415.892792 1428.833740,413.575562 
	C1427.533081,412.044373 1426.233398,410.891022 1424.914062,410.868103 
	C1417.280762,410.735596 1409.642822,410.869781 1402.006592,410.913696 
	C1401.666138,402.463318 1401.532471,393.998016 1400.923340,385.567047 
	C1400.385254,378.119965 1406.653564,374.468048 1411.648926,374.225708 
	C1417.745972,373.929871 1421.422729,378.724701 1422.182129,385.197906 
	C1422.639648,389.097107 1424.234863,393.109467 1426.259277,396.511444 
	C1428.434814,400.167694 1432.427002,400.292389 1436.522339,399.743958 
	C1440.662964,399.189453 1445.004272,398.655029 1449.067505,399.303314 
	C1458.137329,400.750366 1463.483276,396.819214 1464.022827,387.610626 
	C1464.156616,385.324585 1464.417603,382.916595 1465.266602,380.827393 
	C1467.376465,375.635376 1471.471191,373.868774 1477.569214,375.064423 
	C1481.884644,375.910553 1484.985352,379.925110 1485.000244,384.946167 
	C1485.041870,398.939545 1485.073486,412.933563 1484.968994,426.926300 
	C1484.945557,430.050293 1484.347534,433.169983 1484.022949,436.746002 
	C1467.982178,437.287872 1451.932739,437.375397 1435.424805,437.343201 
	C1434.298950,433.524048 1433.880371,429.754150 1432.861450,426.154144 
	C1432.334961,424.294067 1430.742676,422.735657 1429.276367,420.717377 
	C1428.793091,419.838318 1428.665161,419.282837 1428.537354,418.727325 
z"/>
<path fill="#EDEDEE" opacity="1.000000" stroke="none" 
	d="
M1395.894287,349.858124 
	C1397.943604,347.593628 1400.746216,345.691223 1401.862305,343.070587 
	C1404.719482,336.362061 1409.076904,333.784485 1416.415283,334.653564 
	C1422.464355,335.369934 1428.665771,334.799835 1435.532593,334.799835 
	C1433.554199,341.093048 1431.872314,346.799042 1429.883301,352.395752 
	C1429.575439,353.261810 1427.865723,354.133270 1426.794067,354.146271 
	C1416.151489,354.275482 1405.506836,354.224579 1394.697388,354.224579 
	C1395.439209,352.678253 1396.002197,351.504761 1396.187012,350.126282 
	C1395.808716,349.921295 1395.879272,349.893066 1395.894287,349.858124 
z"/>
<path fill="#EFEFEF" opacity="1.000000" stroke="none" 
	d="
M1478.987549,354.219543 
	C1472.823608,354.220276 1467.154053,354.334564 1461.495239,354.136963 
	C1460.109131,354.088562 1457.864990,353.325104 1457.539062,352.370148 
	C1455.670044,346.896118 1454.260010,341.265320 1452.467651,334.880646 
	C1461.849365,334.880646 1470.747681,334.862976 1479.645386,334.922760 
	C1480.201904,334.926483 1480.965088,335.400818 1481.276611,335.884979 
	C1485.012207,341.692291 1488.680542,347.542908 1492.894287,354.218201 
	C1487.701538,354.218201 1483.593628,354.218201 1478.987549,354.219543 
z"/>
<path fill="#E6E6E6" opacity="1.000000" stroke="none" 
	d="
M1454.482910,357.269226 
	C1455.324951,365.075439 1455.725098,372.760162 1456.188110,381.652710 
	C1453.674805,380.292694 1452.114624,379.596130 1450.710571,378.664429 
	C1442.455444,373.186371 1445.515503,372.924683 1436.857910,378.807343 
	C1435.548218,379.697266 1434.189575,380.515411 1432.262451,381.743439 
	C1432.262451,373.246918 1432.262451,365.566254 1432.262451,357.147797 
	C1439.570068,357.147797 1446.805542,357.147797 1454.482910,357.269226 
z"/>
<path fill="#E7E7E7" opacity="1.000000" stroke="none" 
	d="
M1437.008545,340.053345 
	C1437.451172,334.841980 1440.661255,334.825989 1444.461548,334.635284 
	C1448.604248,334.427399 1449.886475,336.372375 1450.763550,339.829559 
	C1451.935791,344.451141 1453.521362,348.967896 1455.056641,353.942078 
	C1447.528442,353.942078 1440.472778,353.942078 1432.823608,353.942078 
	C1434.245972,349.237396 1435.573853,344.844635 1437.008545,340.053345 
z"/>
<path fill="#404040" opacity="1.000000" stroke="none" 
	d="
M1428.102173,418.674957 
	C1428.665161,419.282837 1428.793091,419.838318 1428.897095,420.681030 
	C1419.778564,420.968262 1410.684082,420.968262 1401.589478,420.968262 
	C1401.561768,420.198853 1401.534180,419.429474 1401.506470,418.660065 
	C1410.197998,418.146210 1418.926636,418.280792 1428.102173,418.674957 
z"/>
<path fill="#3F3F3F" opacity="1.000000" stroke="none" 
	d="
M1401.874512,411.219727 
	C1409.642822,410.869781 1417.280762,410.735596 1424.914062,410.868103 
	C1426.233398,410.891022 1427.533081,412.044373 1428.740967,413.047180 
	C1420.599365,413.519440 1412.557983,413.692596 1404.518677,413.622711 
	C1403.587158,413.614624 1402.667603,412.257477 1401.874512,411.219727 
z"/>
<path fill="#393939" opacity="1.000000" stroke="none" 
	d="
M1423.721924,429.270630 
	C1416.055908,429.272522 1408.858887,429.272522 1400.978760,429.272522 
	C1404.062500,425.456543 1425.191406,425.215057 1429.376953,428.707977 
	C1427.205688,428.942749 1425.698242,429.105743 1423.721924,429.270630 
z"/>
</svg>