<svg version="1.1" id="Layer_1" xmlns="http://www.w3.org/2000/svg" xmlns:xlink="http://www.w3.org/1999/xlink" x="0px" y="0px"
	 width="100%" viewBox="0 0 1846 598" enable-background="new 0 0 1846 598" xml:space="preserve">
<path fill="#FFFFFF" opacity="1.000000" stroke="none" 
	d="
M1190.000000,599.000000 
	C793.333313,599.000000 397.166656,599.000000 1.000000,599.000000 
	C1.000000,399.666656 1.000000,200.333328 1.000000,1.000000 
	C616.333313,1.000000 1231.666626,1.000000 1847.000000,1.000000 
	C1847.000000,200.333328 1847.000000,399.666656 1847.000000,599.000000 
	C1628.166626,599.000000 1409.333374,599.000000 1190.000000,599.000000 
M1414.262451,409.282501 
	C1410.431885,411.846649 1409.289917,415.700134 1408.323853,420.013611 
	C1407.257446,421.090057 1405.528564,422.020233 1405.252441,423.271149 
	C1404.508667,426.639893 1404.033325,430.150269 1404.079834,433.595917 
	C1404.228149,444.555450 1404.900146,455.510742 1404.915283,466.468323 
	C1404.928711,476.254578 1403.868286,486.054352 1404.131470,495.825256 
	C1404.477417,508.669983 1407.964966,515.111694 1423.416016,515.025269 
	C1449.392334,514.879883 1475.371826,515.158203 1501.346558,514.909241 
	C1513.552124,514.792236 1520.196899,511.255768 1520.008789,496.286865 
	C1519.898926,487.540558 1519.985718,478.791748 1519.985474,470.044067 
	C1519.985229,456.555939 1520.194702,443.062012 1519.821289,429.584259 
	C1519.740967,426.684540 1517.558472,423.843018 1516.190186,420.126495 
	C1515.632080,417.602448 1515.618530,414.773895 1514.410645,412.613098 
	C1511.173706,406.823425 1507.300659,401.393036 1503.931274,395.672119 
	C1502.206299,392.743042 1500.083862,391.714722 1496.666382,391.738770 
	C1474.899414,391.892029 1453.130859,391.765656 1431.363525,391.891144 
	C1428.882446,391.905426 1425.285278,392.074890 1424.135498,393.613983 
	C1420.428833,398.576447 1417.624390,404.213013 1414.472168,409.589691 
	C1414.617920,409.669525 1414.763550,409.749359 1414.877319,409.897644 
	C1414.877319,409.897644 1414.808105,409.927917 1414.262451,409.282501 
M541.500000,506.001251 
	C549.599182,506.001251 557.698364,506.001251 566.001831,506.001251 
	C566.001831,504.613892 566.001831,503.802399 566.001831,502.990906 
	C566.001343,436.992584 566.034424,370.994171 565.940308,304.996002 
	C565.932251,299.357330 565.530579,293.638794 564.540466,288.095123 
	C558.614685,254.918854 538.649658,232.899429 508.399231,219.990173 
	C475.072418,205.768112 440.352631,205.156738 405.478485,212.697739 
	C377.592255,218.727692 353.919037,232.159286 337.604553,256.469269 
	C328.443909,270.119354 323.739105,285.257294 322.864624,302.011902 
	C333.820892,302.011902 344.296234,302.011902 354.771606,302.011902 
	C365.207184,302.011902 375.642731,302.011902 386.103790,302.011902 
	C390.362244,282.288727 402.689514,270.834503 421.121399,265.682617 
	C435.505737,261.662079 450.155487,261.511597 464.572174,265.413696 
	C482.226776,270.192291 493.534698,281.636139 496.516327,299.851624 
	C497.903259,308.324585 497.113983,317.136902 497.640137,325.775360 
	C497.868195,329.519806 496.588776,330.645813 492.953064,330.828369 
	C474.149811,331.772339 455.361023,332.999084 436.561951,334.032349 
	C413.587952,335.295074 390.751923,337.170227 368.815491,345.005402 
	C331.823792,358.218048 311.906982,383.280487 310.556213,420.067993 
	C309.516327,448.388641 319.536713,472.264160 341.997437,490.163788 
	C358.273590,503.134766 377.294342,509.262115 397.838226,510.562469 
	C438.967651,513.165894 472.218292,499.242645 494.785095,463.466583 
	C495.323822,462.612549 496.099243,461.907776 497.579529,460.184113 
	C497.579529,476.208191 497.579529,490.979279 497.579529,506.001251 
	C512.192749,506.001251 526.346375,506.001251 541.500000,506.001251 
M1041.616089,208.995926 
	C1031.797485,210.711594 1021.741089,211.590134 1012.204346,214.298508 
	C982.526611,222.726837 958.455811,238.745895 944.568787,267.434998 
	C939.330627,278.256470 936.613098,289.725952 936.007202,301.731323 
	C957.452148,301.731323 978.376221,301.731323 999.360291,301.731323 
	C1003.314514,282.865479 1015.136414,271.494019 1032.846436,266.087891 
	C1047.479980,261.620819 1062.449097,261.531342 1077.252686,265.265198 
	C1090.686157,268.653503 1100.990967,276.374268 1106.663330,289.343536 
	C1112.404541,302.469788 1110.557251,316.319733 1110.661499,330.160706 
	C1108.964355,330.398499 1107.832764,330.637054 1106.690796,330.705109 
	C1087.899170,331.824280 1069.109497,332.983429 1050.312744,334.008820 
	C1027.176636,335.270874 1004.171814,337.086243 982.074341,344.979858 
	C944.620056,358.359161 924.501465,384.204590 923.713989,420.946198 
	C923.070068,450.987488 934.336975,475.494690 959.083984,493.036530 
	C979.967468,507.839630 1003.837585,512.443848 1028.831055,510.674316 
	C1062.856689,508.265320 1089.706055,493.032532 1107.859741,463.586395 
	C1108.405762,462.700745 1109.144165,461.933716 1110.768921,459.874084 
	C1110.768921,476.169617 1110.768921,490.985901 1110.768921,505.790466 
	C1133.855713,505.790466 1156.286499,505.790466 1179.097290,505.790466 
	C1179.097290,504.795105 1179.097290,504.007050 1179.097290,503.218964 
	C1179.090332,436.896973 1179.230347,370.574249 1178.903931,304.253845 
	C1178.859497,295.221161 1177.559082,285.881287 1174.994751,277.230713 
	C1165.835693,246.333145 1143.721436,227.820938 1114.422729,217.068802 
	C1091.188843,208.542297 1067.019409,207.080200 1041.616089,208.995926 
M109.931038,449.500000 
	C109.931038,414.401855 109.931038,379.303741 109.931038,343.837280 
	C165.723953,343.837280 220.976242,343.837280 276.403748,343.837280 
	C276.403748,324.407715 276.403748,305.350403 276.403748,285.945282 
	C220.829987,285.945282 165.567093,285.945282 110.163101,285.945282 
	C110.163101,246.682785 110.163101,207.769867 110.163101,168.484833 
	C170.823334,168.484833 231.251785,168.484833 291.822205,168.484833 
	C291.822205,148.408813 291.822205,128.706802 291.822205,109.136124 
	C207.418335,109.136124 123.351692,109.136124 39.260696,109.136124 
	C39.260696,241.512115 39.260696,373.585754 39.260696,505.708069 
	C62.889130,505.708069 86.280830,505.708069 109.930641,505.708069 
	C109.930641,487.110535 109.930641,468.805267 109.931038,449.500000 
M1236.200317,440.499908 
	C1236.200317,462.263458 1236.200317,484.027039 1236.200317,505.685303 
	C1259.426880,505.685303 1282.008545,505.685303 1304.849854,505.685303 
	C1304.849854,503.565796 1304.849854,501.755005 1304.849854,499.944183 
	C1304.849854,446.777649 1304.759888,393.610840 1304.947144,340.444946 
	C1304.975098,332.501709 1305.512085,324.394196 1307.162476,316.650146 
	C1316.660278,272.086182 1366.724365,250.892471 1403.911133,275.667603 
	C1421.032471,287.074432 1428.441772,304.479370 1429.789673,324.112396 
	C1431.111084,343.361938 1430.600586,362.737366 1430.887329,382.057648 
	C1430.913696,383.831085 1430.890869,385.605225 1430.890869,387.515656 
	C1453.901245,387.515656 1476.313843,387.515656 1498.926270,387.515656 
	C1499.036621,386.144775 1499.207153,385.014374 1499.206543,383.884003 
	C1499.196289,362.717651 1499.625488,341.536774 1498.955078,320.390839 
	C1498.593384,308.982208 1497.382080,297.386078 1494.743286,286.305847 
	C1487.895752,257.554565 1472.607300,234.436035 1446.086548,219.980179 
	C1427.062134,209.610413 1406.483276,207.028992 1385.134644,208.817688 
	C1349.646118,211.791122 1323.171387,228.183502 1307.380005,260.664673 
	C1306.956421,261.536224 1306.214600,262.253052 1305.621094,263.042023 
	C1305.305786,262.929718 1304.990601,262.817413 1304.675293,262.705109 
	C1304.675293,211.484100 1304.675293,160.263077 1304.675293,109.200043 
	C1281.598145,109.200043 1259.026855,109.200043 1236.200439,109.200043 
	C1236.200439,219.545425 1236.200439,329.522644 1236.200317,440.499908 
M847.896057,511.620148 
	C862.676575,512.387756 877.347046,511.591797 891.800354,509.102753 
	C891.800354,491.740234 891.800354,474.955475 891.800354,457.927124 
	C889.773743,458.066132 887.978516,458.305664 886.185303,458.292023 
	C878.718567,458.235199 871.169067,458.772095 863.803650,457.855652 
	C849.101746,456.026337 841.164368,447.917786 838.963867,433.436737 
	C838.291626,429.012970 837.985657,424.492004 837.979553,420.014923 
	C837.911987,370.517609 837.934692,321.020142 837.945740,271.522736 
	C837.946045,270.088837 838.087341,268.654938 838.181702,266.864014 
	C856.258118,266.864014 874.007141,266.864014 891.714966,266.864014 
	C891.714966,249.086426 891.714966,231.691238 891.714966,213.900146 
	C873.664612,213.900146 855.920532,213.900146 837.719177,213.900146 
	C837.719177,189.105881 837.719177,164.708694 837.719177,140.412537 
	C814.342712,140.412537 791.433350,140.412537 768.021851,140.412537 
	C768.021851,165.114624 768.021851,189.499100 768.021851,214.244888 
	C754.096497,214.244888 740.673889,214.244888 727.277710,214.244888 
	C727.277710,232.013947 727.277710,249.410812 727.277710,267.139709 
	C741.011414,267.139709 754.446228,267.139709 768.191406,267.139709 
	C768.191406,269.268890 768.191406,271.066040 768.191406,272.863190 
	C768.191101,323.027252 768.032776,373.192169 768.317749,423.354614 
	C768.378052,433.961029 769.244385,444.708038 771.158203,455.129700 
	C775.685669,479.784576 789.373901,497.510010 813.813293,505.035522 
	C824.518311,508.331848 835.896790,509.440948 847.896057,511.620148 
M691.689270,438.500183 
	C691.689270,328.759033 691.689270,219.017883 691.689270,109.059906 
	C668.632996,109.059906 646.066040,109.059906 623.375977,109.059906 
	C623.375977,241.447754 623.375977,373.606964 623.375977,505.694641 
	C646.244324,505.694641 668.808411,505.694641 691.689270,505.694641 
	C691.689270,483.425018 691.689270,461.462616 691.689270,438.500183 
M1781.948242,215.474228 
	C1771.968628,209.556503 1761.178101,206.905518 1749.579834,206.962296 
	C1725.755127,207.078918 1701.929688,206.997452 1678.104492,206.997513 
	C1676.497437,206.997513 1674.890259,206.997498 1673.225342,206.997498 
	C1673.225342,198.229797 1673.225342,189.968643 1673.225342,181.525116 
	C1682.252686,179.659378 1691.109497,177.828857 1699.709717,176.051376 
	C1699.709717,163.368317 1699.709717,151.283981 1699.709717,139.388855 
	C1678.704712,139.388855 1657.994263,139.388855 1636.948486,139.388855 
	C1636.948486,162.051743 1636.948486,184.324539 1636.948486,206.878235 
	C1620.834351,206.878235 1605.056763,206.878235 1589.215698,206.878235 
	C1588.433105,209.081558 1587.736938,211.041763 1587.342896,212.151108 
	C1579.495972,210.388382 1572.160156,207.735504 1564.679321,207.231262 
	C1529.425903,204.854904 1501.134521,231.648575 1501.059448,267.048767 
	C1500.976807,306.035248 1501.037354,345.021973 1501.050659,384.008606 
	C1501.051147,385.276459 1501.219604,386.544220 1501.302490,387.708496 
	C1538.878906,387.708496 1576.116699,387.708496 1613.429932,387.708496 
	C1613.623413,385.708344 1613.789429,383.992767 1613.955444,382.277222 
	C1614.270386,382.290253 1614.585449,382.303284 1614.900391,382.316315 
	C1614.900391,424.765839 1614.900391,467.215332 1614.900391,509.783661 
	C1646.182373,509.783661 1676.913696,509.783661 1708.032471,509.783661 
	C1708.032471,469.170837 1708.032471,428.774048 1708.032471,387.833038 
	C1742.441772,387.833038 1776.467285,387.833038 1810.484741,387.833038 
	C1810.604370,386.810883 1810.710205,386.328369 1810.710205,385.845856 
	C1810.716187,345.859589 1810.986938,305.870697 1810.602173,265.888123 
	C1810.395386,244.395157 1800.690186,227.627884 1781.948242,215.474228 
z"/>
<path fill="#010101" opacity="1.000000" stroke="none" 
	d="
M541.000000,506.001251 
	C526.346375,506.001251 512.192749,506.001251 497.579529,506.001251 
	C497.579529,490.979279 497.579529,476.208191 497.579529,460.184113 
	C496.099243,461.907776 495.323822,462.612549 494.785095,463.466583 
	C472.218292,499.242645 438.967651,513.165894 397.838226,510.562469 
	C377.294342,509.262115 358.273590,503.134766 341.997437,490.163788 
	C319.536713,472.264160 309.516327,448.388641 310.556213,420.067993 
	C311.906982,383.280487 331.823792,358.218048 368.815491,345.005402 
	C390.751923,337.170227 413.587952,335.295074 436.561951,334.032349 
	C455.361023,332.999084 474.149811,331.772339 492.953064,330.828369 
	C496.588776,330.645813 497.868195,329.519806 497.640137,325.775360 
	C497.113983,317.136902 497.903259,308.324585 496.516327,299.851624 
	C493.534698,281.636139 482.226776,270.192291 464.572174,265.413696 
	C450.155487,261.511597 435.505737,261.662079 421.121399,265.682617 
	C402.689514,270.834503 390.362244,282.288727 386.103790,302.011902 
	C375.642731,302.011902 365.207184,302.011902 354.771606,302.011902 
	C344.296234,302.011902 333.820892,302.011902 322.864624,302.011902 
	C323.739105,285.257294 328.443909,270.119354 337.604553,256.469269 
	C353.919037,232.159286 377.592255,218.727692 405.478485,212.697739 
	C440.352631,205.156738 475.072418,205.768112 508.399231,219.990173 
	C538.649658,232.899429 558.614685,254.918854 564.540466,288.095123 
	C565.530579,293.638794 565.932251,299.357330 565.940308,304.996002 
	C566.034424,370.994171 566.001343,436.992584 566.001831,502.990906 
	C566.001831,503.802399 566.001831,504.613892 566.001831,506.001251 
	C557.698364,506.001251 549.599182,506.001251 541.000000,506.001251 
M491.779205,423.192352 
	C499.460175,408.227081 497.283112,392.147125 497.525055,376.145538 
	C496.283295,376.076843 495.470215,375.949249 494.668243,375.999573 
	C472.080750,377.416718 449.483795,378.706635 426.912689,380.350586 
	C416.931030,381.077637 407.171051,383.191498 398.265381,388.101929 
	C384.960571,395.437958 378.225830,406.505188 378.876160,421.937927 
	C379.504333,436.844177 386.968964,447.393738 400.341095,452.757965 
	C408.486847,456.025635 417.628387,458.091187 426.384735,458.319946 
	C454.249512,459.047852 477.069733,449.172882 491.779205,423.192352 
z"/>
<path fill="#010101" opacity="1.000000" stroke="none" 
	d="
M1042.078369,208.978668 
	C1067.019409,207.080200 1091.188843,208.542297 1114.422729,217.068802 
	C1143.721436,227.820938 1165.835693,246.333145 1174.994751,277.230713 
	C1177.559082,285.881287 1178.859497,295.221161 1178.903931,304.253845 
	C1179.230347,370.574249 1179.090332,436.896973 1179.097290,503.218964 
	C1179.097290,504.007050 1179.097290,504.795105 1179.097290,505.790466 
	C1156.286499,505.790466 1133.855713,505.790466 1110.768921,505.790466 
	C1110.768921,490.985901 1110.768921,476.169617 1110.768921,459.874084 
	C1109.144165,461.933716 1108.405762,462.700745 1107.859741,463.586395 
	C1089.706055,493.032532 1062.856689,508.265320 1028.831055,510.674316 
	C1003.837585,512.443848 979.967468,507.839630 959.083984,493.036530 
	C934.336975,475.494690 923.070068,450.987488 923.713989,420.946198 
	C924.501465,384.204590 944.620056,358.359161 982.074341,344.979858 
	C1004.171814,337.086243 1027.176636,335.270874 1050.312744,334.008820 
	C1069.109497,332.983429 1087.899170,331.824280 1106.690796,330.705109 
	C1107.832764,330.637054 1108.964355,330.398499 1110.661499,330.160706 
	C1110.557251,316.319733 1112.404541,302.469788 1106.663330,289.343536 
	C1100.990967,276.374268 1090.686157,268.653503 1077.252686,265.265198 
	C1062.449097,261.531342 1047.479980,261.620819 1032.846436,266.087891 
	C1015.136414,271.494019 1003.314514,282.865479 999.360291,301.731323 
	C978.376221,301.731323 957.452148,301.731323 936.007202,301.731323 
	C936.613098,289.725952 939.330627,278.256470 944.568787,267.434998 
	C958.455811,238.745895 982.526611,222.726837 1012.204346,214.298508 
	C1021.741089,211.590134 1031.797485,210.711594 1042.078369,208.978668 
M997.595825,400.201355 
	C984.616455,421.977966 993.769104,446.602875 1018.071411,454.932526 
	C1031.476440,459.527100 1045.206543,459.497284 1058.981201,456.915436 
	C1084.436646,452.144226 1104.926758,433.523132 1109.296509,409.633636 
	C1111.275024,398.816406 1110.711426,387.534180 1111.307251,376.345215 
	C1109.741699,376.133942 1109.108154,375.939056 1108.490601,375.980865 
	C1083.417114,377.678955 1058.296021,378.891541 1033.292480,381.315521 
	C1019.487183,382.653931 1006.803894,387.791565 997.595825,400.201355 
z"/>
<path fill="#010101" opacity="1.000000" stroke="none" 
	d="
M109.930840,450.000000 
	C109.930641,468.805267 109.930641,487.110535 109.930641,505.708069 
	C86.280830,505.708069 62.889130,505.708069 39.260696,505.708069 
	C39.260696,373.585754 39.260696,241.512115 39.260696,109.136124 
	C123.351692,109.136124 207.418335,109.136124 291.822205,109.136124 
	C291.822205,128.706802 291.822205,148.408813 291.822205,168.484833 
	C231.251785,168.484833 170.823334,168.484833 110.163101,168.484833 
	C110.163101,207.769867 110.163101,246.682785 110.163101,285.945282 
	C165.567093,285.945282 220.829987,285.945282 276.403748,285.945282 
	C276.403748,305.350403 276.403748,324.407715 276.403748,343.837280 
	C220.976242,343.837280 165.723953,343.837280 109.931038,343.837280 
	C109.931038,379.303741 109.931038,414.401855 109.930840,450.000000 
z"/>
<path fill="#020202" opacity="1.000000" stroke="none" 
	d="
M1236.200439,439.999878 
	C1236.200439,329.522644 1236.200439,219.545425 1236.200439,109.200043 
	C1259.026855,109.200043 1281.598145,109.200043 1304.675293,109.200043 
	C1304.675293,160.263077 1304.675293,211.484100 1304.675293,262.705109 
	C1304.990601,262.817413 1305.305786,262.929718 1305.621094,263.042023 
	C1306.214600,262.253052 1306.956421,261.536224 1307.380005,260.664673 
	C1323.171387,228.183502 1349.646118,211.791122 1385.134644,208.817688 
	C1406.483276,207.028992 1427.062134,209.610413 1446.086548,219.980179 
	C1472.607300,234.436035 1487.895752,257.554565 1494.743286,286.305847 
	C1497.382080,297.386078 1498.593384,308.982208 1498.955078,320.390839 
	C1499.625488,341.536774 1499.196289,362.717651 1499.206543,383.884003 
	C1499.207153,385.014374 1499.036621,386.144775 1498.926270,387.515656 
	C1476.313843,387.515656 1453.901245,387.515656 1430.890869,387.515656 
	C1430.890869,385.605225 1430.913696,383.831085 1430.887329,382.057648 
	C1430.600586,362.737366 1431.111084,343.361938 1429.789673,324.112396 
	C1428.441772,304.479370 1421.032471,287.074432 1403.911133,275.667603 
	C1366.724365,250.892471 1316.660278,272.086182 1307.162476,316.650146 
	C1305.512085,324.394196 1304.975098,332.501709 1304.947144,340.444946 
	C1304.759888,393.610840 1304.849854,446.777649 1304.849854,499.944183 
	C1304.849854,501.755005 1304.849854,503.565796 1304.849854,505.685303 
	C1282.008545,505.685303 1259.426880,505.685303 1236.200317,505.685303 
	C1236.200317,484.027039 1236.200317,462.263458 1236.200439,439.999878 
z"/>
<path fill="#010101" opacity="1.000000" stroke="none" 
	d="
M847.432739,511.581696 
	C835.896790,509.440948 824.518311,508.331848 813.813293,505.035522 
	C789.373901,497.510010 775.685669,479.784576 771.158203,455.129700 
	C769.244385,444.708038 768.378052,433.961029 768.317749,423.354614 
	C768.032776,373.192169 768.191101,323.027252 768.191406,272.863190 
	C768.191406,271.066040 768.191406,269.268890 768.191406,267.139709 
	C754.446228,267.139709 741.011414,267.139709 727.277710,267.139709 
	C727.277710,249.410812 727.277710,232.013947 727.277710,214.244888 
	C740.673889,214.244888 754.096497,214.244888 768.021851,214.244888 
	C768.021851,189.499100 768.021851,165.114624 768.021851,140.412537 
	C791.433350,140.412537 814.342712,140.412537 837.719177,140.412537 
	C837.719177,164.708694 837.719177,189.105881 837.719177,213.900146 
	C855.920532,213.900146 873.664612,213.900146 891.714966,213.900146 
	C891.714966,231.691238 891.714966,249.086426 891.714966,266.864014 
	C874.007141,266.864014 856.258118,266.864014 838.181702,266.864014 
	C838.087341,268.654938 837.946045,270.088837 837.945740,271.522736 
	C837.934692,321.020142 837.911987,370.517609 837.979553,420.014923 
	C837.985657,424.492004 838.291626,429.012970 838.963867,433.436737 
	C841.164368,447.917786 849.101746,456.026337 863.803650,457.855652 
	C871.169067,458.772095 878.718567,458.235199 886.185303,458.292023 
	C887.978516,458.305664 889.773743,458.066132 891.800354,457.927124 
	C891.800354,474.955475 891.800354,491.740234 891.800354,509.102753 
	C877.347046,511.591797 862.676575,512.387756 847.432739,511.581696 
z"/>
<path fill="#020202" opacity="1.000000" stroke="none" 
	d="
M691.689270,439.000214 
	C691.689270,461.462616 691.689270,483.425018 691.689270,505.694641 
	C668.808411,505.694641 646.244324,505.694641 623.375977,505.694641 
	C623.375977,373.606964 623.375977,241.447754 623.375977,109.059906 
	C646.066040,109.059906 668.632996,109.059906 691.689270,109.059906 
	C691.689270,219.017883 691.689270,328.759033 691.689270,439.000214 
z"/>
<path fill="#010202" opacity="1.000000" stroke="none" 
	d="
M1782.251953,215.681549 
	C1800.690186,227.627884 1810.395386,244.395157 1810.602173,265.888123 
	C1810.986938,305.870697 1810.716187,345.859589 1810.710205,385.845856 
	C1810.710205,386.328369 1810.604370,386.810883 1810.484741,387.833038 
	C1776.467285,387.833038 1742.441772,387.833038 1708.032471,387.833038 
	C1708.032471,428.774048 1708.032471,469.170837 1708.032471,509.783661 
	C1676.913696,509.783661 1646.182373,509.783661 1614.900391,509.783661 
	C1614.900391,467.215332 1614.900391,424.765839 1614.900391,382.316315 
	C1614.585449,382.303284 1614.270386,382.290253 1613.955444,382.277222 
	C1613.789429,383.992767 1613.623413,385.708344 1613.429932,387.708496 
	C1576.116699,387.708496 1538.878906,387.708496 1501.302490,387.708496 
	C1501.219604,386.544220 1501.051147,385.276459 1501.050659,384.008606 
	C1501.037354,345.021973 1500.976807,306.035248 1501.059448,267.048767 
	C1501.134521,231.648575 1529.425903,204.854904 1564.679321,207.231262 
	C1572.160156,207.735504 1579.495972,210.388382 1587.342896,212.151108 
	C1587.736938,211.041763 1588.433105,209.081558 1589.215698,206.878235 
	C1605.056763,206.878235 1620.834351,206.878235 1636.948486,206.878235 
	C1636.948486,184.324539 1636.948486,162.051743 1636.948486,139.388855 
	C1657.994263,139.388855 1678.704712,139.388855 1699.709717,139.388855 
	C1699.709717,151.283981 1699.709717,163.368317 1699.709717,176.051376 
	C1691.109497,177.828857 1682.252686,179.659378 1673.225342,181.525116 
	C1673.225342,189.968643 1673.225342,198.229797 1673.225342,206.997498 
	C1674.890259,206.997498 1676.497437,206.997513 1678.104492,206.997513 
	C1701.929688,206.997452 1725.755127,207.078918 1749.579834,206.962296 
	C1761.178101,206.905518 1771.968628,209.556503 1782.251953,215.681549 
M1687.997803,158.455780 
	C1687.997803,156.032806 1687.997803,153.609848 1687.997803,151.256073 
	C1674.722534,151.256073 1662.123535,151.256073 1648.989746,151.256073 
	C1648.989746,193.566635 1648.989746,235.626694 1648.989746,277.697754 
	C1642.381592,277.697754 1636.318237,277.697754 1629.796143,277.697754 
	C1629.796143,257.996185 1629.796143,238.595383 1629.796143,219.327881 
	C1622.287231,219.327881 1615.247314,219.327881 1607.330933,219.327881 
	C1623.689087,235.807755 1627.614990,255.494492 1627.166626,277.147888 
	C1626.521606,308.299530 1627.001587,339.474487 1627.001343,370.639496 
	C1627.001221,372.386292 1627.001343,374.133118 1627.001343,375.621185 
	C1684.644409,375.621185 1741.545166,375.621185 1798.716187,375.621185 
	C1798.716187,373.932037 1798.716064,372.618195 1798.716064,371.304352 
	C1798.715698,336.806183 1798.772339,302.307892 1798.697144,267.809875 
	C1798.635254,239.472092 1778.079102,219.030273 1749.760986,219.007538 
	C1722.095825,218.985336 1694.430542,219.002396 1666.765381,219.002228 
	C1664.979248,219.002213 1663.193237,219.002228 1661.287842,219.002228 
	C1661.287842,202.989670 1661.287842,187.431885 1661.287842,171.673340 
	C1670.278076,169.827728 1679.034668,168.030060 1687.997803,166.190018 
	C1687.997803,163.702347 1687.997803,161.552399 1687.997803,158.455780 
M1530.299316,229.765839 
	C1518.691162,239.661835 1513.032227,252.266388 1513.039673,267.490051 
	C1513.056641,302.143402 1513.041138,336.796783 1513.054565,371.450134 
	C1513.055176,372.885834 1513.216187,374.321503 1513.296509,375.657532 
	C1544.891724,375.657532 1576.109619,375.657532 1607.519775,375.657532 
	C1607.576660,374.515808 1607.652222,373.704590 1607.652344,372.893372 
	C1607.656860,337.573608 1607.689087,302.253723 1607.601440,266.934174 
	C1607.592407,263.297974 1607.227051,259.580170 1606.413696,256.041229 
	C1598.511963,221.665314 1559.609863,207.938812 1530.299316,229.765839 
M1695.997192,437.500000 
	C1695.997192,423.423187 1695.997192,409.346375 1695.997192,395.337708 
	C1687.344849,395.337708 1679.293213,395.337708 1671.308594,395.337708 
	C1671.308594,429.695770 1671.308594,463.717957 1671.308594,497.673645 
	C1679.673584,497.673645 1687.729004,497.673645 1695.997192,497.673645 
	C1695.997192,477.733734 1695.997192,458.116852 1695.997192,437.500000 
M1651.999756,475.499969 
	C1651.999756,448.754425 1651.999756,422.008881 1651.999756,395.271729 
	C1643.480835,395.271729 1635.567139,395.271729 1627.332886,395.271729 
	C1627.332886,429.583374 1627.332886,463.623871 1627.332886,497.703979 
	C1635.608398,497.703979 1643.668213,497.703979 1651.999634,497.703979 
	C1651.999634,490.440643 1651.999634,483.470276 1651.999756,475.499969 
z"/>
<path fill="#EBEBEB" opacity="1.000000" stroke="none" 
	d="
M1516.344482,420.974670 
	C1517.558472,423.843018 1519.740967,426.684540 1519.821289,429.584259 
	C1520.194702,443.062012 1519.985229,456.555939 1519.985474,470.044067 
	C1519.985718,478.791748 1519.898926,487.540558 1520.008789,496.286865 
	C1520.196899,511.255768 1513.552124,514.792236 1501.346558,514.909241 
	C1475.371826,515.158203 1449.392334,514.879883 1423.416016,515.025269 
	C1407.964966,515.111694 1404.477417,508.669983 1404.131470,495.825256 
	C1403.868286,486.054352 1404.928711,476.254578 1404.915283,466.468323 
	C1404.900146,455.510742 1404.228149,444.555450 1404.079834,433.595917 
	C1404.033325,430.150269 1404.508667,426.639893 1405.252441,423.271149 
	C1405.528564,422.020233 1407.257446,421.090057 1408.874756,420.461243 
	C1409.439819,445.534790 1409.536133,470.161194 1409.387817,494.786133 
	C1409.362671,498.952942 1410.208618,500.543915 1414.856812,500.511353 
	C1446.469849,500.289825 1478.085205,500.395966 1509.699829,500.392578 
	C1516.098877,500.391876 1516.087280,500.384521 1516.107300,493.831329 
	C1516.181763,469.545776 1516.264771,445.260193 1516.344482,420.974670 
z"/>
<path fill="#2E2E2E" opacity="1.000000" stroke="none" 
	d="
M1516.267334,420.550568 
	C1516.264771,445.260193 1516.181763,469.545776 1516.107300,493.831329 
	C1516.087280,500.384521 1516.098877,500.391876 1509.699829,500.392578 
	C1478.085205,500.395966 1446.469849,500.289825 1414.856812,500.511353 
	C1410.208618,500.543915 1409.362671,498.952942 1409.387817,494.786133 
	C1409.536133,470.161194 1409.439819,445.534790 1409.270020,420.463013 
	C1409.289917,415.700134 1410.431885,411.846649 1414.892578,409.991699 
	C1415.199341,411.704376 1414.875977,412.707825 1414.386719,414.226562 
	C1425.229858,414.226562 1435.527344,414.279633 1445.822388,414.146912 
	C1446.886475,414.133179 1448.579102,413.241547 1448.888794,412.369690 
	C1450.873657,406.781311 1452.553345,401.084564 1454.528809,394.802307 
	C1447.309204,394.802307 1440.800659,395.266022 1434.389404,394.675018 
	C1427.658203,394.054474 1423.705200,396.438110 1421.100220,402.643036 
	C1419.936035,405.416046 1417.026611,407.456360 1414.909302,409.829193 
	C1414.763550,409.749359 1414.617920,409.669525 1414.472168,409.589691 
	C1417.624390,404.213013 1420.428833,398.576447 1424.135498,393.613983 
	C1425.285278,392.074890 1428.882446,391.905426 1431.363525,391.891144 
	C1453.130859,391.765656 1474.899414,391.892029 1496.666382,391.738770 
	C1500.083862,391.714722 1502.206299,392.743042 1503.931274,395.672119 
	C1507.300659,401.393036 1511.173706,406.823425 1514.410645,412.613098 
	C1515.618530,414.773895 1515.632080,417.602448 1516.267334,420.550568 
M1452.805298,497.486389 
	C1453.534058,497.382050 1454.262939,497.277740 1455.752075,497.449738 
	C1456.813843,497.356964 1457.875732,497.264221 1459.602905,497.492218 
	C1461.073975,497.387543 1462.545044,497.282867 1464.903442,497.476929 
	C1477.254761,497.372101 1489.606201,497.267303 1502.589478,497.473816 
	C1503.044556,497.395905 1503.499634,497.318024 1504.776733,497.538818 
	C1507.525635,497.026886 1510.274658,496.514954 1513.222900,495.083160 
	C1513.130859,474.390686 1513.038818,453.698212 1513.194580,432.097992 
	C1513.209839,430.952789 1513.235352,429.807617 1513.238770,428.662384 
	C1513.274414,416.429596 1513.273438,416.429596 1500.047974,417.174133 
	C1493.966797,417.160461 1487.879883,417.303772 1481.806763,417.075714 
	C1478.008301,416.933075 1476.541382,418.161896 1477.432129,422.786255 
	C1477.554077,425.883270 1477.675903,428.980316 1477.480591,432.941711 
	C1477.423340,436.190582 1477.569214,439.462372 1477.206787,442.676849 
	C1477.065674,443.928680 1475.779419,445.051361 1474.577881,445.712372 
	C1472.716431,444.480591 1470.854858,443.248810 1468.620728,441.436432 
	C1464.643311,436.863892 1460.741089,437.501770 1456.881592,441.599579 
	C1456.550659,441.950989 1456.179199,442.264252 1455.155396,442.794342 
	C1453.426758,443.996613 1451.698120,445.198883 1449.199219,446.062561 
	C1448.721924,442.048798 1448.244507,438.035065 1448.044067,433.124481 
	C1447.967651,428.743347 1447.891357,424.362183 1448.032227,419.166229 
	C1446.973022,418.486847 1445.922241,417.235901 1444.853394,417.220337 
	C1437.581543,417.114136 1430.305908,417.268188 1422.139648,417.137146 
	C1419.029907,417.137146 1415.920166,417.137146 1412.604370,417.137146 
	C1412.467529,418.693359 1412.291260,419.659424 1412.313599,420.620850 
	C1412.409912,424.769989 1412.564331,428.917755 1412.438477,433.958466 
	C1412.515869,454.664642 1412.593262,475.370789 1412.813232,496.866577 
	C1425.906494,496.995148 1438.999756,497.123718 1452.805298,497.486389 
M1494.499023,414.223297 
	C1500.006836,414.223297 1505.514526,414.223297 1511.908813,414.223297 
	C1507.780151,407.646973 1504.393921,402.146698 1500.863892,396.740265 
	C1500.305420,395.884827 1499.107788,394.921234 1498.191284,394.906769 
	C1489.453491,394.768524 1480.712769,394.824219 1471.649658,394.824219 
	C1471.947998,396.520020 1472.011108,397.510895 1472.302246,398.429504 
	C1473.902832,403.481476 1474.120728,410.518066 1477.588989,413.009857 
	C1481.279175,415.661102 1488.065918,414.002289 1494.499023,414.223297 
M1466.420288,417.096313 
	C1461.351318,417.096313 1456.282349,417.096313 1451.316406,417.096313 
	C1451.316406,425.634460 1451.316406,433.308868 1451.316406,441.986786 
	C1454.298706,439.895264 1456.724121,438.501984 1458.772461,436.683838 
	C1461.650024,434.129730 1464.081543,434.132172 1466.983032,436.703705 
	C1469.061523,438.545685 1471.624146,439.841095 1474.488159,441.719757 
	C1474.488159,432.823029 1474.488159,425.245453 1474.488159,417.097351 
	C1471.934204,417.097351 1469.660278,417.097351 1466.420288,417.096313 
M1466.346924,414.239227 
	C1468.781006,414.239227 1471.215088,414.239227 1474.172607,414.239227 
	C1472.230835,408.001587 1470.665405,402.434509 1468.670898,397.025543 
	C1468.278442,395.961182 1466.212402,394.867371 1464.951172,394.904694 
	C1462.340454,394.981934 1458.093262,395.052521 1457.448120,396.464325 
	C1454.961792,401.905396 1453.630249,407.874023 1451.687012,414.239227 
	C1456.822998,414.239227 1461.109009,414.239227 1466.346924,414.239227 
z"/>
<path fill="#FDFDFD" opacity="1.000000" stroke="none" 
	d="
M491.576477,423.506897 
	C477.069733,449.172882 454.249512,459.047852 426.384735,458.319946 
	C417.628387,458.091187 408.486847,456.025635 400.341095,452.757965 
	C386.968964,447.393738 379.504333,436.844177 378.876160,421.937927 
	C378.225830,406.505188 384.960571,395.437958 398.265381,388.101929 
	C407.171051,383.191498 416.931030,381.077637 426.912689,380.350586 
	C449.483795,378.706635 472.080750,377.416718 494.668243,375.999573 
	C495.470215,375.949249 496.283295,376.076843 497.525055,376.145538 
	C497.283112,392.147125 499.460175,408.227081 491.576477,423.506897 
z"/>
<path fill="#FDFDFD" opacity="1.000000" stroke="none" 
	d="
M997.806519,399.905212 
	C1006.803894,387.791565 1019.487183,382.653931 1033.292480,381.315521 
	C1058.296021,378.891541 1083.417114,377.678955 1108.490601,375.980865 
	C1109.108154,375.939056 1109.741699,376.133942 1111.307251,376.345215 
	C1110.711426,387.534180 1111.275024,398.816406 1109.296509,409.633636 
	C1104.926758,433.523132 1084.436646,452.144226 1058.981201,456.915436 
	C1045.206543,459.497284 1031.476440,459.527100 1018.071411,454.932526 
	C993.769104,446.602875 984.616455,421.977966 997.806519,399.905212 
z"/>
<path fill="#5AC3F5" opacity="1.000000" stroke="none" 
	d="
M1687.997803,158.929123 
	C1687.997803,161.552399 1687.997803,163.702347 1687.997803,166.190018 
	C1679.034668,168.030060 1670.278076,169.827728 1661.287842,171.673340 
	C1661.287842,187.431885 1661.287842,202.989670 1661.287842,219.002228 
	C1663.193237,219.002228 1664.979248,219.002213 1666.765381,219.002228 
	C1694.430542,219.002396 1722.095825,218.985336 1749.760986,219.007538 
	C1778.079102,219.030273 1798.635254,239.472092 1798.697144,267.809875 
	C1798.772339,302.307892 1798.715698,336.806183 1798.716064,371.304352 
	C1798.716064,372.618195 1798.716187,373.932037 1798.716187,375.621185 
	C1741.545166,375.621185 1684.644409,375.621185 1627.001343,375.621185 
	C1627.001343,374.133118 1627.001221,372.386292 1627.001343,370.639496 
	C1627.001587,339.474487 1626.521606,308.299530 1627.166626,277.147888 
	C1627.614990,255.494492 1623.689087,235.807755 1607.330933,219.327881 
	C1615.247314,219.327881 1622.287231,219.327881 1629.796143,219.327881 
	C1629.796143,238.595383 1629.796143,257.996185 1629.796143,277.697754 
	C1636.318237,277.697754 1642.381592,277.697754 1648.989746,277.697754 
	C1648.989746,235.626694 1648.989746,193.566635 1648.989746,151.256073 
	C1662.123535,151.256073 1674.722534,151.256073 1687.997803,151.256073 
	C1687.997803,153.609848 1687.997803,156.032806 1687.997803,158.929123 
z"/>
<path fill="#59C3F4" opacity="1.000000" stroke="none" 
	d="
M1530.569092,229.532837 
	C1559.609863,207.938812 1598.511963,221.665314 1606.413696,256.041229 
	C1607.227051,259.580170 1607.592407,263.297974 1607.601440,266.934174 
	C1607.689087,302.253723 1607.656860,337.573608 1607.652344,372.893372 
	C1607.652222,373.704590 1607.576660,374.515808 1607.519775,375.657532 
	C1576.109619,375.657532 1544.891724,375.657532 1513.296509,375.657532 
	C1513.216187,374.321503 1513.055176,372.885834 1513.054565,371.450134 
	C1513.041138,336.796783 1513.056641,302.143402 1513.039673,267.490051 
	C1513.032227,252.266388 1518.691162,239.661835 1530.569092,229.532837 
z"/>
<path fill="#5AC4F5" opacity="1.000000" stroke="none" 
	d="
M1695.997192,438.000000 
	C1695.997192,458.116852 1695.997192,477.733734 1695.997192,497.673645 
	C1687.729004,497.673645 1679.673584,497.673645 1671.308594,497.673645 
	C1671.308594,463.717957 1671.308594,429.695770 1671.308594,395.337708 
	C1679.293213,395.337708 1687.344849,395.337708 1695.997192,395.337708 
	C1695.997192,409.346375 1695.997192,423.423187 1695.997192,438.000000 
z"/>
<path fill="#59C3F4" opacity="1.000000" stroke="none" 
	d="
M1651.999756,475.999939 
	C1651.999634,483.470276 1651.999634,490.440643 1651.999634,497.703979 
	C1643.668213,497.703979 1635.608398,497.703979 1627.332886,497.703979 
	C1627.332886,463.623871 1627.332886,429.583374 1627.332886,395.271729 
	C1635.567139,395.271729 1643.480835,395.271729 1651.999756,395.271729 
	C1651.999756,422.008881 1651.999756,448.754425 1651.999756,475.999939 
z"/>
<path fill="#FEFEFE" opacity="1.000000" stroke="none" 
	d="
M1501.957520,497.162476 
	C1489.606201,497.267303 1477.254761,497.372101 1464.299072,497.047119 
	C1462.108887,496.802002 1460.523193,496.986725 1458.937500,497.171448 
	C1457.875732,497.264221 1456.813843,497.356964 1455.370117,496.901764 
	C1454.326172,493.824677 1452.904297,491.218689 1453.151001,488.781525 
	C1453.777954,482.588867 1450.486938,478.223419 1447.498779,473.340637 
	C1446.413818,472.263428 1445.182983,470.902435 1443.905518,470.857361 
	C1436.666748,470.601959 1429.416870,470.661591 1422.102539,470.164795 
	C1421.779541,468.924774 1421.332275,468.141632 1421.300171,467.341827 
	C1420.977539,459.312347 1420.451172,451.276611 1420.555664,443.250092 
	C1420.614624,438.712219 1425.953979,434.871765 1430.864014,435.002655 
	C1436.957886,435.165100 1439.300659,437.479034 1440.063965,443.579620 
	C1440.431274,446.516449 1441.105835,449.451691 1441.987915,452.279510 
	C1443.765625,457.978271 1446.678833,459.983795 1452.656982,459.997040 
	C1458.563843,460.010132 1464.510498,459.565735 1470.368164,460.102539 
	C1478.829956,460.878052 1483.421631,453.716431 1483.980591,447.324768 
	C1484.081909,446.167236 1483.898682,444.978302 1484.058594,443.833466 
	C1484.765137,438.779419 1488.632935,435.137207 1493.314087,435.021484 
	C1497.575317,434.916138 1502.707642,438.468018 1502.928467,442.125031 
	C1503.427856,450.395447 1504.037231,458.692963 1503.850220,466.962463 
	C1503.622559,477.038239 1502.623169,487.096588 1501.957520,497.162476 
z"/>
<path fill="#F6F6F6" opacity="1.000000" stroke="none" 
	d="
M1502.273438,497.318146 
	C1502.623169,487.096588 1503.622559,477.038239 1503.850220,466.962463 
	C1504.037231,458.692963 1503.427856,450.395447 1502.928467,442.125031 
	C1502.707642,438.468018 1497.575317,434.916138 1493.314087,435.021484 
	C1488.632935,435.137207 1484.765137,438.779419 1484.058594,443.833466 
	C1483.898682,444.978302 1484.081909,446.167236 1483.980591,447.324768 
	C1483.421631,453.716431 1478.829956,460.878052 1470.368164,460.102539 
	C1464.510498,459.565735 1458.563843,460.010132 1452.656982,459.997040 
	C1446.678833,459.983795 1443.765625,457.978271 1441.987915,452.279510 
	C1441.105835,449.451691 1440.431274,446.516449 1440.063965,443.579620 
	C1439.300659,437.479034 1436.957886,435.165100 1430.864014,435.002655 
	C1425.953979,434.871765 1420.614624,438.712219 1420.555664,443.250092 
	C1420.451172,451.276611 1420.977539,459.312347 1421.300171,467.341827 
	C1421.332275,468.141632 1421.779541,468.924774 1421.837524,470.319519 
	C1419.192139,474.305511 1422.169556,473.696320 1423.821655,473.736786 
	C1430.212891,473.893250 1436.606934,473.930695 1443.033936,474.361664 
	C1443.378174,475.827911 1443.688477,476.945007 1443.541504,478.173767 
	C1436.618042,478.309540 1430.149780,478.260345 1423.687378,478.429718 
	C1422.604248,478.458130 1421.545898,479.433960 1420.476074,479.972107 
	C1421.008667,480.533752 1421.541260,481.095367 1422.053711,482.101440 
	C1422.026611,483.727997 1422.019531,484.910095 1421.790527,486.251526 
	C1421.121338,487.140747 1420.674316,487.870697 1420.160645,489.021301 
	C1420.153320,494.488525 1417.647583,496.665222 1412.670654,496.076965 
	C1412.593262,475.370789 1412.515869,454.664642 1412.898438,433.483521 
	C1424.213867,428.718811 1424.880615,427.638611 1423.031494,417.338257 
	C1430.305908,417.268188 1437.581543,417.114136 1444.853394,417.220337 
	C1445.922241,417.235901 1446.973022,418.486847 1447.564697,419.574036 
	C1445.071899,422.107025 1441.027222,424.823547 1441.440430,426.234467 
	C1442.307129,429.193878 1445.518433,431.466614 1447.767212,434.021301 
	C1448.244507,438.035065 1448.721924,442.048798 1449.584961,446.608154 
	C1450.915527,448.421295 1451.858765,450.734131 1452.806030,450.735809 
	C1454.697510,450.739136 1456.591187,449.474854 1458.484009,448.734070 
	C1457.854980,447.450592 1457.193359,446.181641 1456.609497,444.877960 
	C1456.282104,444.146759 1456.083252,443.358063 1455.826538,442.595276 
	C1456.179199,442.264252 1456.550659,441.950989 1456.881592,441.599579 
	C1460.741089,437.501770 1464.643311,436.863892 1468.762329,442.085205 
	C1468.501465,443.424377 1467.951538,444.070312 1467.727295,444.814392 
	C1467.262817,446.355743 1466.172729,448.661255 1466.792969,449.356842 
	C1467.758667,450.439819 1470.320923,451.260284 1471.501465,450.701721 
	C1473.034180,449.976562 1473.875732,447.790283 1475.014893,446.232880 
	C1475.779419,445.051361 1477.065674,443.928680 1477.206787,442.676849 
	C1477.569214,439.462372 1477.423340,436.190582 1477.972290,432.495422 
	C1480.270874,430.227509 1482.077637,428.405914 1483.884521,426.584290 
	C1481.856079,425.031647 1479.827637,423.479004 1477.799194,421.926392 
	C1476.541382,418.161896 1478.008301,416.933075 1481.806763,417.075714 
	C1487.879883,417.303772 1493.966797,417.160461 1500.507935,417.651550 
	C1499.408325,427.879852 1503.347290,432.771698 1512.946777,433.005737 
	C1513.038818,453.698212 1513.130859,474.390686 1512.690430,495.541351 
	C1509.423584,496.413055 1506.689087,496.826599 1503.954712,497.240112 
	C1503.499634,497.318024 1503.044556,497.395905 1502.273438,497.318146 
M1460.822876,444.242493 
	C1460.879028,444.411194 1460.935059,444.579895 1460.991211,444.748566 
	C1461.045898,444.578857 1461.100586,444.409149 1460.822876,444.242493 
z"/>
<path fill="#EEEEEE" opacity="1.000000" stroke="none" 
	d="
M1414.893311,409.863403 
	C1417.026611,407.456360 1419.936035,405.416046 1421.100220,402.643036 
	C1423.705200,396.438110 1427.658203,394.054474 1434.389404,394.675018 
	C1440.800659,395.266022 1447.309204,394.802307 1454.528809,394.802307 
	C1452.553345,401.084564 1450.873657,406.781311 1448.888794,412.369690 
	C1448.579102,413.241547 1446.886475,414.133179 1445.822388,414.146912 
	C1435.527344,414.279633 1425.229858,414.226562 1414.386719,414.226562 
	C1414.875977,412.707825 1415.199341,411.704376 1415.165283,410.314392 
	C1414.808105,409.927917 1414.877319,409.897644 1414.893311,409.863403 
z"/>
<path fill="#EFEFEF" opacity="1.000000" stroke="none" 
	d="
M1493.999756,414.224335 
	C1488.065918,414.002289 1481.279175,415.661102 1477.588989,413.009857 
	C1474.120728,410.518066 1473.902832,403.481476 1472.302246,398.429504 
	C1472.011108,397.510895 1471.947998,396.520020 1471.649658,394.824219 
	C1480.712769,394.824219 1489.453491,394.768524 1498.191284,394.906769 
	C1499.107788,394.921234 1500.305420,395.884827 1500.863892,396.740265 
	C1504.393921,402.146698 1507.780151,407.646973 1511.908813,414.223297 
	C1505.514526,414.223297 1500.006836,414.223297 1493.999756,414.224335 
z"/>
<path fill="#E6E6E6" opacity="1.000000" stroke="none" 
	d="
M1466.903320,417.096832 
	C1469.660278,417.097351 1471.934204,417.097351 1474.488159,417.097351 
	C1474.488159,425.245453 1474.488159,432.823029 1474.488159,441.719757 
	C1471.624146,439.841095 1469.061523,438.545685 1466.983032,436.703705 
	C1464.081543,434.132172 1461.650024,434.129730 1458.772461,436.683838 
	C1456.724121,438.501984 1454.298706,439.895264 1451.316406,441.986786 
	C1451.316406,433.308868 1451.316406,425.634460 1451.316406,417.096313 
	C1456.282349,417.096313 1461.351318,417.096313 1466.903320,417.096832 
z"/>
<path fill="#E7E7E7" opacity="1.000000" stroke="none" 
	d="
M1465.870850,414.239227 
	C1461.109009,414.239227 1456.822998,414.239227 1451.687012,414.239227 
	C1453.630249,407.874023 1454.961792,401.905396 1457.448120,396.464325 
	C1458.093262,395.052521 1462.340454,394.981934 1464.951172,394.904694 
	C1466.212402,394.867371 1468.278442,395.961182 1468.670898,397.025543 
	C1470.665405,402.434509 1472.230835,408.001587 1474.172607,414.239227 
	C1471.215088,414.239227 1468.781006,414.239227 1465.870850,414.239227 
z"/>
<path fill="#E6E6E6" opacity="1.000000" stroke="none" 
	d="
M1412.741943,496.471771 
	C1417.647583,496.665222 1420.153320,494.488525 1420.588867,489.189209 
	C1429.732544,489.053772 1438.381470,489.171112 1447.027588,489.708435 
	C1445.571411,494.738953 1448.853271,495.980652 1452.093018,497.252289 
	C1438.999756,497.123718 1425.906494,496.995148 1412.741943,496.471771 
z"/>
<path fill="#E6E6E6" opacity="1.000000" stroke="none" 
	d="
M1513.070801,432.551880 
	C1503.347290,432.771698 1499.408325,427.879852 1500.967651,417.734497 
	C1513.273438,416.429596 1513.274414,416.429596 1513.238770,428.662384 
	C1513.235352,429.807617 1513.209839,430.952789 1513.070801,432.551880 
z"/>
<path fill="#E6E6E6" opacity="1.000000" stroke="none" 
	d="
M1422.585571,417.237671 
	C1424.880615,427.638611 1424.213867,428.718811 1413.027832,433.037323 
	C1412.564331,428.917755 1412.409912,424.769989 1412.313599,420.620850 
	C1412.291260,419.659424 1412.467529,418.693359 1412.604370,417.137146 
	C1415.920166,417.137146 1419.029907,417.137146 1422.585571,417.237671 
z"/>
<path fill="#F8F8F9" opacity="1.000000" stroke="none" 
	d="
M1452.449219,497.369324 
	C1448.853271,495.980652 1445.571411,494.738953 1447.244629,489.478668 
	C1446.971802,487.915070 1446.479370,487.001190 1445.987549,485.642151 
	C1445.961548,484.006256 1445.935059,482.815491 1446.201416,481.496338 
	C1449.188110,477.604706 1445.306885,478.804565 1443.998779,478.062073 
	C1443.688477,476.945007 1443.378174,475.827911 1443.385864,474.263275 
	C1444.913086,473.765320 1446.122314,473.714966 1447.331421,473.664551 
	C1450.486938,478.223419 1453.777954,482.588867 1453.151001,488.781525 
	C1452.904297,491.218689 1454.326172,493.824677 1454.989990,496.763611 
	C1454.262939,497.277740 1453.534058,497.382050 1452.449219,497.369324 
z"/>
<path fill="#E6E6E6" opacity="1.000000" stroke="none" 
	d="
M1447.905640,433.572876 
	C1445.518433,431.466614 1442.307129,429.193878 1441.440430,426.234467 
	C1441.027222,424.823547 1445.071899,422.107025 1447.456055,419.981445 
	C1447.891357,424.362183 1447.967651,428.743347 1447.905640,433.572876 
z"/>
<path fill="#E6E6E6" opacity="1.000000" stroke="none" 
	d="
M1477.615723,422.356323 
	C1479.827637,423.479004 1481.856079,425.031647 1483.884521,426.584290 
	C1482.077637,428.405914 1480.270874,430.227509 1478.130859,432.063232 
	C1477.675903,428.980316 1477.554077,425.883270 1477.615723,422.356323 
z"/>
<path fill="#E6E6E6" opacity="1.000000" stroke="none" 
	d="
M1474.796387,445.972656 
	C1473.875732,447.790283 1473.034180,449.976562 1471.501465,450.701721 
	C1470.320923,451.260284 1467.758667,450.439819 1466.792969,449.356842 
	C1466.172729,448.661255 1467.262817,446.355743 1467.727295,444.814392 
	C1467.951538,444.070312 1468.501465,443.424377 1468.948730,442.375519 
	C1470.854858,443.248810 1472.716431,444.480591 1474.796387,445.972656 
z"/>
<path fill="#E6E6E6" opacity="1.000000" stroke="none" 
	d="
M1455.490967,442.694824 
	C1456.083252,443.358063 1456.282104,444.146759 1456.609497,444.877960 
	C1457.193359,446.181641 1457.854980,447.450592 1458.484009,448.734070 
	C1456.591187,449.474854 1454.697510,450.739136 1452.806030,450.735809 
	C1451.858765,450.734131 1450.915527,448.421295 1449.969971,446.777435 
	C1451.698120,445.198883 1453.426758,443.996613 1455.490967,442.694824 
z"/>
<path fill="#E6E6E6" opacity="1.000000" stroke="none" 
	d="
M1504.365723,497.389465 
	C1506.689087,496.826599 1509.423584,496.413055 1512.590820,496.001282 
	C1510.274658,496.514954 1507.525635,497.026886 1504.365723,497.389465 
z"/>
<path fill="#F8F8F9" opacity="1.000000" stroke="none" 
	d="
M1459.270264,497.331818 
	C1460.523193,496.986725 1462.108887,496.802002 1463.855347,496.897736 
	C1462.545044,497.282867 1461.073975,497.387543 1459.270264,497.331818 
z"/>
<path fill="#404041" opacity="1.000000" stroke="none" 
	d="
M1447.498779,473.340637 
	C1446.122314,473.714966 1444.913086,473.765320 1443.352051,473.914093 
	C1436.606934,473.930695 1430.212891,473.893250 1423.821655,473.736786 
	C1422.169556,473.696320 1419.192139,474.305511 1421.905762,470.768646 
	C1429.416870,470.661591 1436.666748,470.601959 1443.905518,470.857361 
	C1445.182983,470.902435 1446.413818,472.263428 1447.498779,473.340637 
z"/>
<path fill="#404041" opacity="1.000000" stroke="none" 
	d="
M1443.541504,478.173767 
	C1445.306885,478.804565 1449.188110,477.604706 1445.750732,481.387665 
	C1437.362793,481.490570 1429.718262,481.573792 1422.073853,481.657013 
	C1421.541260,481.095367 1421.008667,480.533752 1420.476074,479.972107 
	C1421.545898,479.433960 1422.604248,478.458130 1423.687378,478.429718 
	C1430.149780,478.260345 1436.618042,478.309540 1443.541504,478.173767 
z"/>
<path fill="#E6E6E6" opacity="1.000000" stroke="none" 
	d="
M1422.053711,482.101440 
	C1429.718262,481.573792 1437.362793,481.490570 1445.457886,481.516052 
	C1445.935059,482.815491 1445.961548,484.006256 1445.528564,485.741089 
	C1437.383545,486.220886 1429.697998,486.156555 1422.012573,486.092224 
	C1422.019531,484.910095 1422.026611,483.727997 1422.053711,482.101440 
z"/>
<path fill="#393938" opacity="1.000000" stroke="none" 
	d="
M1421.790527,486.251526 
	C1429.697998,486.156555 1437.383545,486.220886 1445.527954,486.186249 
	C1446.479370,487.001190 1446.971802,487.915070 1447.247192,489.058685 
	C1438.381470,489.171112 1429.732544,489.053772 1420.655518,488.768494 
	C1420.674316,487.870697 1421.121338,487.140747 1421.790527,486.251526 
z"/>
<path fill="#E6E6E6" opacity="1.000000" stroke="none" 
	d="
M1460.989014,444.240967 
	C1461.100586,444.409149 1461.045898,444.578857 1460.991211,444.748596 
	C1460.935059,444.579895 1460.879028,444.411194 1460.989014,444.240967 
z"/>
</svg>